<svg width="653" height="420" viewBox="0 0 653 420" fill="none" xmlns="http://www.w3.org/2000/svg">
<path d="M473.673 175.724C474.823 175.447 476.02 175.425 477.179 175.661C478.338 175.896 479.431 176.383 480.382 177.086C481.333 177.79 482.117 178.694 482.681 179.734C483.245 180.774 483.574 181.924 483.645 183.105L511.321 190.887L500.028 200.669L475.477 191.78C473.486 191.767 471.569 191.025 470.088 189.693C468.608 188.361 467.667 186.532 467.445 184.553C467.223 182.574 467.734 180.582 468.882 178.955C470.03 177.328 471.735 176.178 473.674 175.724L473.673 175.724Z" fill="#FFB7B7"/>
<path d="M544.795 411.42L536.727 411.419L532.889 380.298L544.796 380.299L544.795 411.42Z" fill="#FFB7B7"/>
<path d="M546.852 419.241L520.839 419.24V418.911C520.84 416.225 521.906 413.65 523.805 411.751C525.704 409.852 528.279 408.785 530.964 408.785H530.965L546.852 408.785L546.852 419.241Z" fill="#272727"/>
<path d="M592.067 411.42L584 411.419L580.162 380.298L592.068 380.299L592.067 411.42Z" fill="#FFB7B7"/>
<path d="M594.125 419.241L568.112 419.24V418.911C568.112 416.225 569.179 413.65 571.078 411.751C572.976 409.852 575.551 408.785 578.237 408.785H578.237L594.125 408.785L594.125 419.241Z" fill="#272727"/>
<path d="M538.203 232.798L526.319 315.122L529.28 401.859L547.125 403.281L552.705 325.494L566.91 282.12L575.261 343.949L575.604 401.859L594.031 403.281L600.458 281.532L595.731 228.584L538.203 232.798Z" fill="#272727"/>
<path d="M572.574 122.576C582.957 122.576 591.374 114.158 591.374 103.774C591.374 93.3902 582.957 84.9722 572.574 84.9722C562.192 84.9722 553.775 93.3902 553.775 103.774C553.775 114.158 562.192 122.576 572.574 122.576Z" fill="#FFB7B7"/>
<path d="M560.987 132.803L540.232 237.375C540.232 237.375 575.175 247.405 590.483 238.145C605.79 228.886 598.931 200.301 598.931 200.301L596.127 151.662L590.947 139.362L586.551 129.208L560.987 132.803Z" fill="#94CCFC"/>
<path d="M554.912 207.031L562.081 130.773L556.347 134.96L536.3 141.471L534.928 195.16L520.905 265.76C520.905 265.76 530.929 285.322 543.351 252.959L554.912 207.031Z" fill="#202020"/>
<path d="M545.948 149.501L536.3 141.471L514.617 188.582L490.42 183.281L489.276 197.573L524.335 211.449L548.225 178.185L545.948 149.501Z" fill="#202020"/>
<path d="M583.481 190.339L586.184 128.276L596.127 135.977L613.886 140.928L611.282 190.339L615.029 267.009L596.411 272.907L591.185 224.528L583.481 190.339Z" fill="#202020"/>
<path d="M584.677 240.299C584.885 239.135 585.346 238.03 586.027 237.063C586.708 236.096 587.593 235.291 588.62 234.703C589.646 234.115 590.789 233.759 591.967 233.661C593.146 233.563 594.332 233.724 595.442 234.133L613.688 211.913L618.106 226.186L600.102 245.099C599.29 246.918 597.84 248.375 596.026 249.196C594.211 250.017 592.159 250.143 590.258 249.551C588.356 248.96 586.738 247.691 585.709 245.986C584.681 244.281 584.313 242.257 584.677 240.299V240.299Z" fill="#FFB7B7"/>
<path d="M601.996 147.817L613.886 140.928L643.803 200.015L614.635 240.524L597.999 227.22L618.2 200.873L599.788 172.574L601.996 147.817Z" fill="#202020"/>
<path d="M590.256 88.743L591.167 86.9084L586.581 84.6296C586.581 84.6296 581.522 76.397 572.368 78.7105C563.213 81.0241 559.095 82.4087 559.095 82.4087L554.52 84.7106L556.816 86.9952L552.698 88.3798L555.449 89.7471L552.248 91.5875L553.971 101.022C553.971 101.022 556.833 93.8663 562.336 96.6008C567.839 99.3353 577.905 95.1872 577.905 95.1872L586.65 112.114C586.65 112.114 588.454 106.18 591.671 107.762C591.671 107.762 599.889 94.6736 590.256 88.743Z" fill="#272727"/>
<path d="M321.735 176H321.699L300.954 184.787L272.572 196.809C272.461 196.855 272.342 196.879 272.221 196.88C272.101 196.88 271.982 196.857 271.87 196.812L242.588 184.761L221.334 176.014L221.301 176H221.265C220.93 176 220.608 176.133 220.371 176.368C220.134 176.603 220 176.922 220 177.255V231.745C220 232.078 220.134 232.397 220.371 232.632C220.608 232.867 220.93 233 221.265 233H321.735C322.07 233 322.392 232.867 322.629 232.632C322.866 232.397 323 232.078 323 231.745V177.255C323 176.922 322.866 176.603 322.629 176.368C322.392 176.133 322.07 176 321.735 176Z" fill="white" fill-opacity="0.12"/>
<path d="M321.82 176C321.783 176 321.747 175.989 321.717 175.968L271.837 141.517C271.685 141.413 271.505 141.357 271.32 141.357C271.136 141.358 270.955 141.414 270.804 141.519L221.284 175.968C221.245 175.995 221.196 176.005 221.149 175.997C221.102 175.989 221.06 175.963 221.033 175.924C221.005 175.885 220.994 175.837 221.003 175.79C221.011 175.743 221.038 175.702 221.077 175.675L270.597 141.226C270.809 141.079 271.061 141 271.32 141C271.578 141 271.831 141.078 272.043 141.224L321.923 175.674C321.954 175.696 321.978 175.727 321.99 175.763C322.003 175.799 322.003 175.838 321.992 175.875C321.98 175.911 321.957 175.943 321.926 175.965C321.895 175.988 321.858 176 321.82 176L321.82 176Z" fill="#2F2F2F"/>
<path d="M271.948 197C271.769 197 271.591 196.965 271.425 196.897L242 184.642V146.28C242 145.94 242.135 145.615 242.374 145.375C242.613 145.135 242.937 145 243.275 145H299.725C300.063 145 300.387 145.135 300.626 145.375C300.865 145.615 301 145.94 301 146.28V184.668L300.945 184.692L272.486 196.891C272.316 196.963 272.133 197 271.948 197Z" fill="#94CCFC"/>
<path d="M267.605 160H248.395C248.025 159.999 247.67 159.841 247.408 159.56C247.147 159.279 247 158.897 247 158.5C247 158.103 247.147 157.721 247.408 157.44C247.67 157.159 248.025 157.001 248.395 157H267.605C267.975 157.001 268.33 157.159 268.592 157.44C268.853 157.721 269 158.103 269 158.5C269 158.897 268.853 159.279 268.592 159.56C268.33 159.841 267.975 159.999 267.605 160Z" fill="#121212"/>
<path d="M257.609 153H248.391C248.022 153 247.668 152.895 247.408 152.707C247.147 152.52 247 152.265 247 152C247 151.735 247.147 151.48 247.408 151.293C247.668 151.105 248.022 151 248.391 151H257.609C257.978 151 258.332 151.105 258.592 151.293C258.853 151.48 259 151.735 259 152C259 152.265 258.853 152.52 258.592 152.707C258.332 152.895 257.978 153 257.609 153Z" fill="#121212"/>
<path d="M286.565 174H256.435C256.054 174 255.689 173.842 255.42 173.561C255.151 173.279 255 172.898 255 172.5C255 172.102 255.151 171.721 255.42 171.439C255.689 171.158 256.054 171 256.435 171H286.565C286.946 171 287.311 171.158 287.58 171.439C287.849 171.721 288 172.102 288 172.5C288 172.898 287.849 173.279 287.58 173.561C287.311 173.842 286.946 174 286.565 174Z" fill="#121212"/>
<path d="M286.563 181H256.437C256.248 181 256.062 180.962 255.887 180.887C255.713 180.811 255.555 180.701 255.421 180.562C255.288 180.422 255.182 180.257 255.109 180.075C255.037 179.892 255 179.697 255 179.5C255 179.303 255.037 179.108 255.109 178.925C255.182 178.743 255.288 178.578 255.421 178.438C255.555 178.299 255.713 178.189 255.887 178.113C256.062 178.038 256.248 178 256.437 178H286.563C286.752 178 286.938 178.038 287.113 178.113C287.287 178.189 287.445 178.299 287.579 178.438C287.712 178.578 287.818 178.743 287.891 178.925C287.963 179.108 288 179.303 288 179.5C288 179.697 287.963 179.892 287.891 180.075C287.818 180.257 287.712 180.422 287.579 180.562C287.445 180.701 287.287 180.811 287.113 180.887C286.938 180.962 286.752 181 286.563 181Z" fill="#121212"/>
<path d="M652.133 420H459.385C459.19 420 459.004 419.923 458.866 419.785C458.729 419.648 458.652 419.461 458.652 419.267C458.652 419.073 458.729 418.886 458.866 418.749C459.004 418.611 459.19 418.534 459.385 418.534H652.133C652.328 418.534 652.514 418.611 652.652 418.749C652.789 418.886 652.866 419.073 652.866 419.267C652.866 419.461 652.789 419.648 652.652 419.785C652.514 419.923 652.328 420 652.133 420Z" fill="white" fill-opacity="0.12"/>
<path d="M117.5 292.012V101.988C117.505 97.6171 119.246 93.4262 122.342 90.3351C125.437 87.2439 129.635 85.505 134.013 85.5H409.987C414.365 85.505 418.563 87.2439 421.658 90.3351C424.754 93.4263 426.495 97.6173 426.5 101.989V292.011C426.495 296.383 424.754 300.574 421.658 303.665C418.563 306.756 414.365 308.495 409.987 308.5H134.013C129.635 308.495 125.437 306.756 122.342 303.665C119.246 300.574 117.505 296.383 117.5 292.012Z" stroke="#94CCFC"/>
<ellipse cx="135.5" cy="97" rx="2.5" ry="3" fill="#94CCFC"/>
<ellipse cx="144.5" cy="97" rx="2.5" ry="3" fill="#94CCFC"/>
<ellipse cx="154.5" cy="97" rx="2.5" ry="3" fill="#94CCFC"/>
</svg>
