<svg width="664" height="420" viewBox="0 0 664 420" fill="none" xmlns="http://www.w3.org/2000/svg">
<path d="M366.456 420H662.126C662.332 420 662.529 419.918 662.675 419.773C662.82 419.628 662.902 419.43 662.902 419.225C662.902 419.019 662.82 418.822 662.675 418.676C662.529 418.531 662.332 418.449 662.126 418.449H366.456C366.25 418.449 366.053 418.531 365.907 418.676C365.762 418.822 365.68 419.019 365.68 419.225C365.68 419.43 365.762 419.628 365.907 419.773C366.053 419.918 366.25 420 366.456 420Z" fill="white" fill-opacity="0.12"/>
<path d="M629.497 13.4032C629.885 10.649 629.249 7.84825 627.708 5.53157C626.168 3.21489 623.831 1.54327 621.139 0.833475C618.448 0.123683 615.589 0.425023 613.105 1.68041C610.621 2.93579 608.684 5.05799 607.662 7.64487L583.669 35.1287L590.709 54.775L614.838 22.6613C616.413 23.1652 618.079 23.3181 619.719 23.1091C621.359 22.9002 622.933 22.3344 624.331 21.4517C625.728 20.5691 626.915 19.391 627.808 18.0004C628.7 16.6098 629.277 15.0405 629.497 13.4032Z" fill="#FFB7B7"/>
<path d="M530.042 120.343L609.686 35.4132L598.943 18.348L499.05 102.762L530.042 120.343Z" fill="#202020"/>
<path d="M512.267 68.7401C527.697 68.7401 540.205 56.2423 540.205 40.8254C540.205 25.4086 527.697 12.9108 512.267 12.9108C496.838 12.9108 484.33 25.4086 484.33 40.8254C484.33 56.2423 496.838 68.7401 512.267 68.7401Z" fill="#272727"/>
<path d="M514.513 25.0562C520.524 18.9649 527.799 14.2644 535.825 11.2855C540.977 9.3785 546.584 8.20024 551.97 9.28328C557.357 10.3663 562.45 14.0893 563.953 19.3696C565.181 23.6873 563.913 28.3362 562.006 32.4007C560.099 36.4652 557.553 40.2343 556.011 44.4505C554.438 48.7524 553.965 53.379 554.635 57.91C555.305 62.4411 557.097 66.7332 559.848 70.3967C562.599 74.0603 566.222 76.9792 570.389 78.8887C574.556 80.7981 579.134 81.6375 583.707 81.3306C578.415 82.0397 573.537 84.5246 568.364 85.8473C563.192 87.1699 557.086 87.0802 553.242 83.3774C549.175 79.4597 549.094 73.09 549.29 67.4486C549.583 59.0626 549.875 50.6766 550.167 42.2905C550.317 38.0138 550.444 33.6 548.9 29.6083C547.357 25.6166 543.688 22.1212 539.406 22.1576C536.16 22.1851 533.287 24.1498 530.684 26.0873C528.081 28.0249 525.326 30.0921 522.093 30.3803C518.86 30.6685 515.168 28.2778 515.41 25.0436L514.513 25.0562Z" fill="#272727"/>
<path d="M406.159 228.259C403.477 229.004 400.615 228.739 398.115 227.516C395.615 226.293 393.651 224.196 392.595 221.622C391.539 219.049 391.465 216.178 392.386 213.553C393.307 210.928 395.159 208.733 397.592 207.382L421.728 180.022L442.141 184.429L413.43 212.528C414.136 214.022 414.505 215.653 414.512 217.305C414.519 218.957 414.163 220.59 413.47 222.09C412.777 223.59 411.763 224.919 410.5 225.985C409.237 227.051 407.755 227.827 406.159 228.259H406.159Z" fill="#FFB7B7"/>
<path d="M485.564 130.311L425.409 205.759L407.073 197.347L477.778 87.3593L485.564 130.311Z" fill="#202020"/>
<path d="M437.566 358.131L423.23 357.906L424.954 406.73H437.564L437.566 358.131Z" fill="#FFB7B7"/>
<path d="M440.78 402.617L415.946 402.616H415.945C411.748 402.616 407.723 404.282 404.755 407.248C401.787 410.213 400.119 414.235 400.119 418.429V418.943L440.78 418.944L440.78 402.617Z" fill="#272727"/>
<path d="M532.489 345.182L516.828 355.228L548.155 392.885L558.766 386.078L532.489 345.182Z" fill="#FFB7B7"/>
<path d="M559.248 380.88L538.35 394.286L538.35 394.286C534.818 396.552 532.331 400.127 531.437 404.225C530.543 408.323 531.315 412.607 533.583 416.136L533.86 416.569L568.076 394.62L559.248 380.88Z" fill="#272727"/>
<path d="M538.068 196.093C538.068 196.093 503.271 80.6138 492.088 79.0532C480.905 77.4927 462.887 108.684 462.887 108.684C439.526 138.466 415.438 234.937 415.438 234.937C415.438 234.937 455.595 237.447 484.95 253.053C514.305 268.658 548.947 252.263 548.947 252.263L538.068 196.093Z" fill="#202020"/>
<path opacity="0.1" d="M538.068 196.093C538.068 196.093 503.271 80.6138 492.088 79.0532C480.905 77.4927 467.464 109 467.464 109C455.823 157.076 415.438 234.937 415.438 234.937C415.438 234.937 455.595 237.447 484.95 253.053C514.305 268.658 548.947 252.263 548.947 252.263L538.068 196.093Z" fill="black"/>
<path d="M509.52 161.543V219.57L516.354 303.628L550.5 367.211L534.203 378.842L487.641 318.36L469.225 258.306L440.303 391.249L418.574 389.698L433.665 205.375L462.301 153.492L509.52 161.543Z" fill="#272727"/>
<path d="M474.435 105.417C463.571 116.272 473.659 127.904 473.659 127.904L461.243 155.818L510.133 169L527.218 92.7169L515.578 80.3104C492.297 79.535 492.284 79.0529 492.284 79.0529C488.205 83.0414 474.435 105.417 474.435 105.417Z" fill="#94CCFC"/>
<path d="M529.187 84.814C526.967 83.1763 524.443 81.995 521.762 81.3387C519.082 80.6824 516.297 80.564 513.571 80.9904C510.844 81.4169 508.229 82.3797 505.877 83.8231C503.526 85.2664 501.484 87.1617 499.871 89.3991C487.58 106.499 476.215 134.11 491.874 168.546C517.016 223.84 538.896 252.147 547.791 252.144C548.179 252.147 548.566 252.086 548.934 251.964C554.409 250.108 562.326 240.851 563.759 232.693C564.272 229.773 564.15 225.706 560.655 222.914C550.616 214.891 532.595 189.911 526.973 157.032C523.867 138.864 529.891 122.315 535.493 111.632C537.859 107.211 538.551 102.087 537.442 97.1979C536.334 92.3089 533.499 87.9828 529.457 85.0128V85.0128L529.187 84.814Z" fill="#202020"/>
<path d="M513.704 65.9978C523.67 60.5544 527.333 48.0692 521.885 38.1113C516.437 28.1535 503.941 24.4938 493.976 29.9373C484.01 35.3807 480.347 47.866 485.795 57.8238C491.243 67.7817 503.738 71.4413 513.704 65.9978Z" fill="#FFB7B7"/>
<path d="M474.918 46.414H504.614L504.918 42.154L506.441 46.414H511.013L511.617 37.9709L514.635 46.414H523.482V45.9957C523.475 40.1177 521.136 34.4824 516.976 30.326C512.816 26.1697 507.176 23.8317 501.294 23.8251H497.107C491.224 23.8317 485.584 26.1696 481.425 30.326C477.265 34.4824 474.925 40.1177 474.918 45.9957V46.414Z" fill="#272727"/>
<path d="M518.996 61.7261L531.668 57.6174V26.8682H507.732L508.325 27.4594C516.57 35.6871 525.74 64.8783 518.996 61.7261Z" fill="#272727"/>
<path d="M0.5 244.373V31.9055C0.505611 27.0021 2.45594 22.3012 5.92313 18.8339C9.39032 15.3667 14.0912 13.4164 18.9945 13.4108H327.117C332.021 13.4164 336.722 15.3667 340.189 18.8339C343.656 22.3012 345.606 27.0023 345.612 31.9058V244.373C345.606 249.276 343.656 253.977 340.189 257.444C336.722 260.912 332.021 262.862 327.117 262.868H18.9948C14.0914 262.862 9.39038 260.912 5.92313 257.444C2.45594 253.977 0.505611 249.276 0.5 244.373Z" stroke="#94CCFC"/>
<path d="M173.056 200.798C160.701 200.798 148.623 197.137 138.349 190.278C128.076 183.42 120.069 173.671 115.341 162.265C110.613 150.859 109.375 138.309 111.786 126.2C114.196 114.092 120.146 102.97 128.883 94.24C137.619 85.5103 148.751 79.5653 160.869 77.1568C172.987 74.7483 185.548 75.9844 196.963 80.7089C208.378 85.4333 218.135 93.4339 224.999 103.699C231.863 113.964 235.527 126.032 235.527 138.378C235.509 154.927 228.921 170.793 217.209 182.495C205.498 194.197 189.619 200.779 173.056 200.798Z" fill="white" fill-opacity="0.12"/>
<ellipse cx="20.5649" cy="26.0927" rx="3.49216" ry="3.10163" fill="#94CCFC"/>
<ellipse cx="30.6536" cy="26.0927" rx="2.71613" ry="3.10163" fill="#94CCFC"/>
<ellipse cx="41.5179" cy="26.0927" rx="2.71612" ry="3.10163" fill="#94CCFC"/>
<g clip-path="url(#clip0)">
<path d="M163.466 160.118L143.862 140.514C142.684 139.336 142.684 137.427 143.862 136.249L148.127 131.983C149.305 130.806 151.214 130.806 152.392 131.983L165.598 145.189L193.884 116.904C195.062 115.726 196.971 115.726 198.149 116.904L202.414 121.169C203.592 122.347 203.592 124.256 202.414 125.434L167.731 160.118C166.553 161.296 164.643 161.296 163.466 160.118V160.118Z" fill="#94CCFC"/>
</g>
<defs>
<clipPath id="clip0">
<rect width="60.3192" height="60.3192" fill="white" transform="translate(142.979 108.351)"/>
</clipPath>
</defs>
</svg>
