<svg width="623" height="520" viewBox="0 0 623 520" fill="none" xmlns="http://www.w3.org/2000/svg">
<path d="M620.766 336.124C616.868 369.519 608.77 396.33 597.654 417.713C582.862 446.204 557.561 457.684 534.959 469.695C528.428 473.16 521.638 476.113 514.65 478.527C473.522 492.802 427.49 489.015 391.332 481.478C365.971 476.187 340.228 472.932 314.349 471.744C306.968 471.411 299.579 471.246 292.184 471.249C280.779 471.263 75.434 475.161 25.4381 373.934C13.0945 348.964 4.63364 318.461 1.59395 281.279C-7.0074 176.162 40.2668 107.124 101.245 61.9984C216.598 -23.3635 374.714 -19.7836 488.366 67.8267C564.069 126.184 634.951 214.505 620.766 336.124Z" fill="#191919"/>
<path d="M325.073 519.213C378.99 519.213 422.698 512.259 422.698 503.681C422.698 495.103 378.99 488.148 325.073 488.148C271.156 488.148 227.448 495.103 227.448 503.681C227.448 512.259 271.156 519.213 325.073 519.213Z" fill="#2F2F2F"/>
<path d="M367.969 468.918H358.354V491.107H367.969V468.918Z" fill="#FFB9B9"/>
<path d="M368.708 169.364H331.729V235.931H368.708V169.364Z" fill="#FF6584"/>
<path d="M395.867 295.347L397.146 305.587L363.443 315.827L359.176 297.054L395.867 295.347Z" fill="#FFB9B9"/>
<path d="M345.95 196.788C345.95 196.788 345.097 204.468 343.391 204.468C341.684 204.468 335.711 207.455 335.711 207.455L334.005 215.561L345.95 222.815L365.575 220.681L371.122 212.148L365.575 206.601C365.575 206.601 360.882 196.361 362.589 194.228C364.295 192.095 345.95 196.788 345.95 196.788Z" fill="#FFB9B9"/>
<path opacity="0.1" d="M345.95 196.788C345.95 196.788 345.097 204.468 343.391 204.468C341.684 204.468 335.711 207.455 335.711 207.455L334.005 215.561L345.95 222.815L365.575 220.681L371.122 212.148L365.575 206.601C365.575 206.601 360.882 196.361 362.589 194.228C364.295 192.095 345.95 196.788 345.95 196.788Z" fill="black"/>
<path d="M292.621 462.6C292.621 462.6 288.782 488.2 284.089 489.906C279.396 491.613 302.007 494.6 302.007 494.6L303.714 485.213C303.714 485.213 304.141 468.146 305.847 465.586C307.554 463.027 292.621 462.6 292.621 462.6Z" fill="#FFB9B9"/>
<path d="M336.138 313.694C336.138 313.694 397.999 302.601 398.426 300.467C398.853 298.334 411.225 316.681 403.546 352.52C395.866 388.36 376.668 472.84 376.668 472.84C376.668 472.84 357.043 478.813 357.469 474.12C357.896 469.426 364.296 387.934 364.296 387.934L360.029 353.374L352.776 357.64L322.486 417.373L307.127 469C307.127 469 287.502 472.413 290.488 465.16C293.475 457.906 303.287 401.587 303.287 401.587L330.165 322.227C330.165 322.227 329.312 313.694 336.138 313.694Z" fill="#272727"/>
<path d="M351.71 202.548C361.606 202.548 369.628 194.525 369.628 184.628C369.628 174.732 361.606 166.708 351.71 166.708C341.814 166.708 333.791 174.732 333.791 184.628C333.791 194.525 341.814 202.548 351.71 202.548Z" fill="#FFB9B9"/>
<path d="M370.268 207.028C370.268 207.028 361.736 215.135 341.684 213.001C321.632 210.868 347.23 258.654 347.23 258.654L355.336 306.867C355.336 306.867 391.173 302.601 392.453 294.494C393.733 286.388 370.268 207.028 370.268 207.028Z" fill="#272727"/>
<path d="M361.736 252.681C361.736 252.681 351.497 247.561 347.657 233.481C343.817 219.401 340.404 204.895 338.271 205.321C336.47 205.682 319.766 212.125 314.352 216.434C313.354 217.228 312.74 217.95 312.673 218.548C312.247 222.388 328.032 260.788 328.032 260.788C328.032 260.788 340.404 288.521 335.285 297.481C330.165 306.441 329.738 317.961 339.124 317.107C348.51 316.254 379.654 314.547 375.388 290.654C375.388 290.654 383.494 307.294 406.105 295.347C406.105 295.347 419.758 293.214 419.331 288.521C418.904 283.827 397.573 243.294 397.573 243.294C397.573 243.294 394.16 225.375 400.559 218.548L386.054 201.481C386.054 201.481 382.641 196.361 379.228 198.921C375.815 201.481 368.135 205.748 366.855 206.175C365.575 206.601 364.734 204.641 364.734 204.641C361.778 210.824 360.593 217.705 361.309 224.521C362.589 235.614 361.736 252.681 361.736 252.681Z" fill="#94CCFC"/>
<path d="M293.901 484.787C293.901 484.787 292.949 481.8 287.452 484.787C287.452 484.787 289.208 475.4 283.236 475.4C277.263 475.4 275.13 486.493 275.13 486.493C275.13 486.493 273.423 493.746 261.904 496.733C250.385 499.72 259.344 509.96 267.45 509.96C275.556 509.96 286.222 503.56 286.222 503.56C286.222 503.56 308.407 503.986 308.833 499.72C309.26 495.453 306.7 482.653 304.994 482.653C303.287 482.653 299.874 488.627 299.874 488.627L293.901 484.787Z" fill="#272727"/>
<path d="M366.429 477.278C366.429 477.278 360.456 470.878 357.043 481.544C353.63 492.211 351.07 496.478 353.203 498.184C355.336 499.891 357.043 499.037 356.189 502.451C355.336 505.864 358.749 513.117 366.429 513.117C374.108 513.117 376.241 507.571 375.815 503.731C375.388 499.891 371.975 495.198 371.975 495.198L368.562 483.251L366.429 477.278Z" fill="#272727"/>
<path d="M400.132 177.162L377.521 184.842C377.521 184.842 357.043 196.788 366.002 199.348C374.961 201.908 382.641 191.668 382.641 191.668L402.266 186.548L400.132 177.162Z" fill="#FFB9B9"/>
<path d="M339.518 156.918C336.834 158.757 334.697 161.276 332.665 163.818C328.536 168.983 324.49 175.151 325.508 181.685C325.894 184.167 326.997 186.477 327.618 188.91C328.456 192.194 328.401 195.631 328.34 199.02C328.39 200.46 328.211 201.899 327.811 203.283C327.214 204.632 326.511 205.932 325.709 207.17C323.654 210.997 323.604 215.545 323.602 219.889C323.504 221.352 323.703 222.819 324.187 224.202C324.748 225.509 325.793 226.533 326.659 227.66C328.094 229.564 329.052 231.785 329.452 234.136C329.852 236.487 329.682 238.9 328.957 241.172C330.071 241.177 331.163 240.864 332.105 240.27C333.047 239.676 333.799 238.826 334.275 237.819C334.423 238.902 334.33 240.004 334.002 241.046C333.674 242.089 333.12 243.046 332.379 243.849C337.263 242.397 342.498 239.95 344.281 235.177C344.804 233.555 345.099 231.868 345.157 230.165C346.106 218.192 346.647 205.771 342.353 194.555C340.98 190.966 339.11 187.493 338.65 183.678C338.189 179.863 339.597 175.454 343.101 173.879C343.183 174.855 343.617 175.769 344.322 176.45C345.102 177.029 346.544 176.666 346.558 175.694L348.251 178.051C348.9 177.732 349.455 177.249 349.859 176.649L351.019 178.07L353.487 176.274L355.631 178.585C356.456 178.115 357.114 177.399 357.512 176.537C357.973 177.226 358.543 177.984 359.369 178.058C361.166 178.221 361.537 175.368 363.107 174.479C363.687 174.222 364.339 174.182 364.946 174.366C365.553 174.55 366.074 174.946 366.414 175.481C367.061 176.582 367.297 177.878 367.08 179.137C366.43 185.004 361.424 190.357 362.908 196.07C363.743 199.283 366.554 201.859 366.766 205.171C366.935 207.818 365.379 210.323 365.403 212.975C365.431 216.084 367.578 218.724 369.675 221.019C373.406 225.104 377.333 228.997 381.457 232.699L380.183 230.47C380.778 230.424 381.376 230.506 381.935 230.712C382.495 230.918 383.004 231.242 383.427 231.663C383.793 230.382 383.186 229.048 382.613 227.845C379.183 220.642 376.414 212.972 376 205.004C375.426 193.929 379.407 182.682 376.884 171.883C375.432 165.837 372.05 160.429 367.248 156.478C364.914 154.557 363.145 153.406 360.122 153.194C356.744 152.9 353.345 152.927 349.972 153.274C346.244 153.628 342.658 154.878 339.518 156.918Z" fill="#272727"/>
<path d="M382.641 201.908C382.641 201.908 387.334 202.335 389.467 201.908C391.6 201.481 394.586 199.348 394.586 199.348L410.798 187.402L396.72 189.535C396.72 189.535 399.279 169.908 398.426 169.482C397.573 169.055 439.809 160.948 438.956 174.175C438.103 187.402 414.211 213.428 400.559 218.548L391.6 219.828L382.641 201.908Z" fill="#94CCFC"/>
<path d="M424.615 353.171H231.448C229.239 353.171 227.448 354.962 227.448 357.171V396.508C227.448 398.717 229.239 400.508 231.448 400.508H424.615C426.824 400.508 428.615 398.717 428.615 396.508V357.171C428.615 354.962 426.824 353.171 424.615 353.171Z" fill="#4D4D4D"/>
<path d="M398.359 363.896H256.964C254.754 363.896 252.964 365.687 252.964 367.896V385.044C252.964 387.253 254.754 389.044 256.964 389.044H398.359C400.569 389.044 402.359 387.253 402.359 385.044V367.896C402.359 365.687 400.569 363.896 398.359 363.896Z" fill="#94CCFC"/>
<path d="M310.113 332.894C310.113 332.894 307.98 361.054 318.219 362.334C328.459 363.614 319.073 330.334 319.073 330.334L310.113 332.894Z" fill="#FFB9B9"/>
<path d="M315.66 217.695L312.673 218.548C312.673 218.548 300.301 317.534 308.407 336.734C308.407 336.734 316.939 332.041 321.206 332.894L328.032 252.255L315.66 217.695Z" fill="#94CCFC"/>
<path d="M279.746 379.398L274.469 376.5L279.746 373.602C280.184 373.362 280.338 372.808 280.089 372.376L279.366 371.124C279.116 370.691 278.56 370.549 278.133 370.808L272.984 373.929L273.113 367.91C273.124 367.41 272.722 367 272.223 367H270.777C270.278 367 269.876 367.41 269.887 367.91L270.016 373.929L264.867 370.808C264.44 370.549 263.884 370.692 263.634 371.124L262.911 372.376C262.662 372.809 262.816 373.362 263.254 373.602L268.531 376.5L263.254 379.398C262.816 379.638 262.662 380.192 262.911 380.624L263.634 381.876C263.884 382.309 264.44 382.451 264.867 382.192L270.016 379.071L269.887 385.09C269.876 385.59 270.278 386 270.777 386H272.223C272.722 386 273.124 385.59 273.113 385.09L272.984 379.071L278.133 382.192C278.56 382.451 279.116 382.308 279.366 381.876L280.089 380.624C280.338 380.191 280.184 379.638 279.746 379.398Z" fill="#121212"/>
<path d="M307.746 379.398L302.469 376.5L307.746 373.602C308.184 373.362 308.338 372.808 308.089 372.376L307.366 371.124C307.116 370.691 306.56 370.549 306.133 370.808L300.984 373.929L301.113 367.91C301.124 367.41 300.722 367 300.223 367H298.777C298.278 367 297.876 367.41 297.887 367.91L298.016 373.929L292.867 370.808C292.44 370.549 291.884 370.692 291.634 371.124L290.911 372.376C290.662 372.809 290.816 373.362 291.254 373.602L296.531 376.5L291.254 379.398C290.816 379.638 290.662 380.192 290.911 380.624L291.634 381.876C291.884 382.309 292.44 382.451 292.867 382.192L298.016 379.071L297.887 385.09C297.876 385.59 298.278 386 298.777 386H300.223C300.722 386 301.124 385.59 301.113 385.09L300.984 379.071L306.133 382.192C306.56 382.451 307.116 382.308 307.366 381.876L308.089 380.624C308.338 380.191 308.184 379.638 307.746 379.398Z" fill="#121212"/>
<path d="M335.746 379.398L330.469 376.5L335.746 373.602C336.184 373.362 336.338 372.808 336.089 372.376L335.366 371.124C335.116 370.691 334.56 370.549 334.133 370.808L328.984 373.929L329.113 367.91C329.124 367.41 328.722 367 328.223 367H326.777C326.278 367 325.876 367.41 325.887 367.91L326.016 373.929L320.867 370.808C320.44 370.549 319.884 370.692 319.634 371.124L318.911 372.376C318.662 372.809 318.816 373.362 319.254 373.602L324.531 376.5L319.254 379.398C318.816 379.638 318.662 380.192 318.911 380.624L319.634 381.876C319.884 382.309 320.44 382.451 320.867 382.192L326.016 379.071L325.887 385.09C325.876 385.59 326.278 386 326.777 386H328.223C328.722 386 329.124 385.59 329.113 385.09L328.984 379.071L334.133 382.192C334.56 382.451 335.116 382.308 335.366 381.876L336.089 380.624C336.338 380.191 336.184 379.638 335.746 379.398Z" fill="#121212"/>
<path d="M363.746 379.398L358.469 376.5L363.746 373.602C364.184 373.362 364.338 372.808 364.089 372.376L363.366 371.124C363.116 370.691 362.56 370.549 362.133 370.808L356.984 373.929L357.113 367.91C357.124 367.41 356.722 367 356.223 367H354.777C354.278 367 353.876 367.41 353.887 367.91L354.016 373.929L348.867 370.808C348.44 370.549 347.884 370.692 347.634 371.124L346.911 372.376C346.662 372.809 346.816 373.362 347.254 373.602L352.531 376.5L347.254 379.398C346.816 379.638 346.662 380.192 346.911 380.624L347.634 381.876C347.884 382.309 348.44 382.451 348.867 382.192L354.016 379.071L353.887 385.09C353.876 385.59 354.278 386 354.777 386H356.223C356.722 386 357.124 385.59 357.113 385.09L356.984 379.071L362.133 382.192C362.56 382.451 363.116 382.308 363.366 381.876L364.089 380.624C364.338 380.191 364.184 379.638 363.746 379.398Z" fill="#121212"/>
<path d="M391.746 379.398L386.469 376.5L391.746 373.602C392.184 373.362 392.338 372.808 392.089 372.376L391.366 371.124C391.116 370.691 390.56 370.549 390.133 370.808L384.984 373.929L385.113 367.91C385.124 367.41 384.722 367 384.223 367H382.777C382.278 367 381.876 367.41 381.887 367.91L382.016 373.929L376.867 370.808C376.44 370.549 375.884 370.692 375.634 371.124L374.911 372.376C374.662 372.809 374.816 373.362 375.254 373.602L380.531 376.5L375.254 379.398C374.816 379.638 374.662 380.192 374.911 380.624L375.634 381.876C375.884 382.309 376.44 382.451 376.867 382.192L382.016 379.071L381.887 385.09C381.876 385.59 382.278 386 382.777 386H384.223C384.722 386 385.124 385.59 385.113 385.09L384.984 379.071L390.133 382.192C390.56 382.451 391.116 382.308 391.366 381.876L392.089 380.624C392.338 380.191 392.184 379.638 391.746 379.398Z" fill="#121212"/>
</svg>
