<svg width="631" height="438" viewBox="0 0 631 438" fill="none" xmlns="http://www.w3.org/2000/svg">
<path d="M136.726 426.975H146.55L151.224 389.133L136.725 389.134L136.726 426.975Z" fill="#A0616A"/>
<path d="M134.22 423.772L153.567 423.771H153.568C156.838 423.771 159.974 425.068 162.286 427.377C164.598 429.686 165.897 432.818 165.897 436.084V436.484L134.221 436.485L134.22 423.772Z" fill="#272727"/>
<path d="M201.621 426.975H211.445L216.119 389.133L201.62 389.134L201.621 426.975Z" fill="#A0616A"/>
<path d="M199.115 423.772L218.462 423.771H218.463C221.733 423.771 224.869 425.068 227.181 427.377C229.493 429.686 230.792 432.818 230.792 436.084V436.484L199.116 436.485L199.115 423.772Z" fill="#272727"/>
<path d="M441.94 436.544H0V438H441.94V436.544Z" fill="white" fill-opacity="0.12"/>
<path d="M128.5 418.769H153.949L170.214 276.537L200.12 418.769H217.291V249.162L135.651 224.762L128.5 418.769Z" fill="#272727"/>
<path d="M171.892 99.6172C184.148 99.6172 194.084 89.6944 194.084 77.454C194.084 65.2137 184.148 55.2909 171.892 55.2909C159.635 55.2909 149.699 65.2137 149.699 77.454C149.699 89.6944 159.635 99.6172 171.892 99.6172Z" fill="#A0616A"/>
<path d="M137.439 228.332C161.252 246.931 187.537 256.305 217.291 252.732C204.724 208.669 200.997 164.939 213.119 121.807L188.091 110.5L159.958 108.714L139.51 114.72C136.634 115.566 134.116 117.333 132.344 119.748C130.571 122.164 129.643 125.094 129.703 128.088C130.425 164.871 127.976 199.296 137.439 228.332Z" fill="#94CCFC"/>
<path d="M150.652 66.3087C152.787 62.2858 155.5 54.2682 159.809 52.7813C162.202 51.9888 164.675 51.4626 167.184 51.2122L174.509 54.0256L170.522 50.9293C171.298 50.8831 172.074 50.8454 172.849 50.816L177.792 52.7143L175.263 50.7503C179.871 50.7031 184.626 51.1816 188.196 53.9826C191.24 56.3706 194.255 65.4165 194.743 69.2509C195.264 72.9191 195.082 76.6528 194.205 80.2528L192.954 81.4413C192.516 80.4388 192.187 79.3924 191.972 78.3199C191.523 76.316 190.661 74.4275 189.441 72.7747C188.222 71.1218 186.67 69.7409 184.886 68.7199L184.818 68.6816C182.719 67.5017 180.172 67.5561 177.765 67.6426L166.332 68.0535C163.581 68.1523 160.62 68.3261 158.475 70.0492C157.027 71.2129 156.159 72.9307 155.334 74.594C154.268 76.7417 152.186 84.8426 152.186 84.8426C152.186 84.8426 151.008 83.3134 150.443 84.4516C149.538 81.4821 148.987 78.4161 148.803 75.3175C148.623 72.205 149.26 69.0996 150.652 66.3087Z" fill="#272727"/>
<path d="M315.275 224.241V47.8131C315.28 43.7641 316.892 39.8822 319.759 37.0189C322.626 34.1557 326.514 32.5449 330.569 32.5403H586.769C590.824 32.5449 594.711 34.1557 597.578 37.0189C600.446 39.8823 602.058 43.7643 602.063 47.8134V224.24C602.058 228.289 600.446 232.171 597.578 235.035C594.711 237.898 590.824 239.509 586.769 239.513H330.569C326.514 239.509 322.626 237.898 319.759 235.035C316.892 232.171 315.28 228.29 315.275 224.241Z" stroke="#94CCFC"/>
<path d="M459.106 188.074C448.801 188.074 438.726 185.022 430.158 179.304C421.589 173.586 414.91 165.459 410.966 155.951C407.023 146.442 405.991 135.979 408.001 125.885C410.012 115.791 414.974 106.519 422.262 99.2414C429.549 91.9639 438.833 87.0078 448.941 85C459.048 82.9921 469.525 84.0226 479.046 87.9611C488.568 91.8997 496.705 98.5694 502.431 107.127C508.156 115.684 511.212 125.745 511.212 136.037V136.037C511.197 149.833 505.702 163.06 495.934 172.815C486.165 182.571 472.921 188.058 459.106 188.074Z" fill="white" fill-opacity="0.12"/>
<path d="M480.429 130.518H464.357V114.549C464.357 112.589 462.758 111 460.786 111H457.214C455.242 111 453.643 112.589 453.643 114.549V130.518H437.571C435.599 130.518 434 132.107 434 134.067V137.615C434 139.575 435.599 141.164 437.571 141.164H453.643V157.133C453.643 159.093 455.242 160.682 457.214 160.682H460.786C462.758 160.682 464.357 159.093 464.357 157.133V141.164H480.429C482.401 141.164 484 139.575 484 137.615V134.067C484 132.107 482.401 130.518 480.429 130.518Z" fill="#94CCFC"/>
<path d="M151.397 242.861C151.392 241.751 151.143 240.655 150.668 239.651C150.193 238.647 149.503 237.759 148.647 237.05C147.791 236.341 146.79 235.828 145.714 235.547C144.638 235.266 143.514 235.224 142.42 235.424L129.101 211.932L123.606 223.18L136.334 244.816C136.793 246.629 137.901 248.211 139.449 249.263C140.998 250.314 142.879 250.762 144.735 250.521C146.592 250.28 148.296 249.367 149.524 247.955C150.751 246.544 151.418 244.731 151.397 242.861V242.861Z" fill="#A0616A"/>
<path d="M210.949 268.978C210.423 267.999 210.119 266.917 210.057 265.808C209.996 264.7 210.178 263.591 210.592 262.56C211.006 261.529 211.641 260.601 212.453 259.842C213.265 259.083 214.233 258.511 215.29 258.166L215.782 231.174L227.367 239.109L225.123 263.525C225.586 265.337 225.367 267.255 224.508 268.916C223.648 270.578 222.209 271.867 220.462 272.539C218.715 273.211 216.781 273.22 215.028 272.563C213.275 271.907 211.823 270.631 210.949 268.978H210.949Z" fill="#A0616A"/>
<path d="M130.288 239.64L139.823 230.713L134.93 182.509L140.591 114.368C128.293 118.228 115.089 128.596 112.914 141.285L105.135 186.674L130.288 239.64Z" fill="#94CCFC"/>
<path opacity="0.2" d="M135.824 156.621L128.077 187.567L139.823 231.48L132.248 189.947L135.824 156.621Z" fill="black"/>
<path d="M212.524 256.303L228.017 258.088L224.389 143.191C224.227 138.057 222.588 133.078 219.668 128.85C216.748 124.622 212.67 121.323 207.923 119.347L202.393 117.046L203.883 170.904L212.524 256.303Z" fill="#94CCFC"/>
<path opacity="0.2" d="M206.723 172.664L212.703 238.974L202.577 173.126L206.723 172.664Z" fill="black"/>
<circle cx="331.5" cy="42.5" r="2.5" fill="#94CCFC"/>
<circle cx="340.5" cy="42.5" r="2.5" fill="#94CCFC"/>
<circle cx="349.5" cy="42.5" r="2.5" fill="#94CCFC"/>
</svg>
