<svg width="489" height="591" viewBox="0 0 489 591" fill="none" xmlns="http://www.w3.org/2000/svg">
<path d="M244.5 591C379.534 591 489 571.669 489 547.824C489 523.978 379.534 504.647 244.5 504.647C109.466 504.647 0 523.978 0 547.824C0 571.669 109.466 591 244.5 591Z" fill="#2F2F2F"/>
<path d="M287.555 463.447V503.158H276.204L268.638 461.556L287.555 463.447Z" fill="#FFB9B9"/>
<path d="M197.696 463.447V503.158H186.346L178.779 461.556L197.696 463.447Z" fill="#FFB9B9"/>
<path d="M257.575 170.71C257.575 170.71 239.335 157.606 237.055 163.873C234.775 170.141 250.735 181.536 250.735 181.536L257.575 170.71Z" fill="#FFB9B9"/>
<path d="M192.881 187.518C192.881 210.175 202.64 210.879 218.537 210.879C234.434 210.879 250.45 210.175 250.45 187.518C250.45 164.862 237.563 146.496 221.666 146.496C205.769 146.496 192.881 164.862 192.881 187.518Z" fill="#272727"/>
<path d="M231.926 187.233C231.926 187.233 229.646 204.326 240.476 205.466C251.305 206.605 205.136 210.024 205.136 210.024C205.136 210.024 217.106 199.198 210.836 190.652C204.566 182.106 231.926 187.233 231.926 187.233Z" fill="#FFB9B9"/>
<path d="M289.495 492.624L293.484 526.24C293.484 526.24 313.434 550.74 300.894 549.03C288.355 547.321 280.375 549.394 280.375 547.115C280.375 544.836 280.08 536.693 278.37 536.693C276.66 536.693 275.245 549.551 275.245 549.551C275.245 549.551 270.115 549.163 269.545 548.593C268.975 548.023 268.405 515.415 268.405 515.415C268.405 515.415 266.695 505.729 270.115 501.171C273.535 496.613 272.965 492.624 272.965 492.624L289.495 492.624Z" fill="#272727"/>
<path d="M198.69 492.255L202.68 525.87C202.68 525.87 222.63 550.37 210.09 548.661C197.55 546.951 189.57 549.024 189.57 546.745C189.57 544.466 189.276 536.323 187.566 536.323C185.856 536.323 184.44 549.181 184.44 549.181C184.44 549.181 179.311 548.793 178.741 548.223C178.171 547.654 177.601 515.045 177.601 515.045C177.601 515.045 175.891 505.359 179.311 500.801C182.73 496.243 182.16 492.255 182.16 492.255H198.69Z" fill="#272727"/>
<path d="M259.855 292.639C259.855 292.639 278.095 344.487 279.235 355.882C280.375 367.277 278.095 406.021 278.095 406.021C278.095 406.021 294.624 472.963 291.204 473.533C287.784 474.102 268.739 476.804 268.169 473.955C267.599 471.106 265.567 466.695 266.137 464.986C266.707 463.277 264.427 457.01 264.427 453.591C264.427 450.172 256.435 432.23 257.005 429.381C257.575 426.532 247.315 384.37 245.605 380.952C243.895 377.533 239.335 353.603 239.335 353.603C239.335 353.603 213.686 423.683 213.116 425.393C212.546 427.102 210.266 429.951 211.406 430.521C212.546 431.09 209.696 435.079 209.696 435.079C209.696 435.079 203.79 458.719 203.79 459.858C203.79 460.998 204.93 473.896 202.65 474.466C200.37 475.036 177.081 474.999 175.941 471.011C174.801 467.023 188.036 420.835 188.036 420.835C188.036 420.835 197.726 391.777 194.876 384.37C192.026 376.963 197.726 332.522 200.006 329.104C202.286 325.685 202.856 305.174 202.856 305.174L259.855 292.639Z" fill="#272727"/>
<path d="M221.951 196.634C232.024 196.634 240.19 188.472 240.19 178.402C240.19 168.333 232.024 160.17 221.951 160.17C211.877 160.17 203.711 168.333 203.711 178.402C203.711 188.472 211.877 196.634 221.951 196.634Z" fill="#FFB9B9"/>
<path d="M231.926 201.478C231.926 201.478 211.406 202.047 210.266 200.338C209.126 198.629 180.627 204.326 180.627 215.722C180.627 227.117 197.156 271.558 197.156 271.558C197.156 271.558 203.426 303.464 201.716 306.883C200.006 310.301 264.985 299.476 263.275 293.778C261.565 288.081 251.875 275.546 264.415 264.721C276.955 253.895 282.085 242.5 282.085 242.5L267.265 203.187C267.265 203.187 252.445 200.908 249.025 203.187C245.605 205.466 231.926 201.478 231.926 201.478Z" fill="#94CCFC"/>
<path d="M278.095 245.349L282.085 242.5C282.085 242.5 319.134 203.756 309.444 196.35C299.754 188.943 285.504 182.106 278.665 181.536C271.825 180.966 266.125 175.838 266.125 175.838C266.125 175.838 258.715 162.734 253.015 171.28C247.315 179.827 241.045 182.675 249.025 185.524C257.005 188.373 262.135 187.233 266.125 190.082C270.115 192.931 285.504 197.489 278.665 199.198C274.742 200.149 270.924 201.485 267.265 203.187L259.855 216.291L278.095 245.349Z" fill="#94CCFC"/>
<path d="M238.499 63.5668C236.475 80.6713 240.653 97.9343 250.277 112.225C246.856 126.253 259.795 142.997 238.793 150.919C264.154 151.711 267.244 142.606 283.728 139.056C299.775 145.355 317.55 145.702 333.83 140.032C350.111 134.362 363.818 123.051 372.467 108.151C381.115 93.2512 384.132 75.7484 380.971 58.8167C377.81 41.8851 368.679 26.6458 355.235 15.8624C341.791 5.07902 324.924 -0.5344 307.692 0.0401066C290.46 0.614613 274.005 7.339 261.311 18.9938C248.616 30.6487 240.523 46.4622 238.499 63.5668Z" fill="#2F2F2F"/>
<path d="M213.686 341.638C213.686 341.638 228.506 363.289 217.676 362.149C206.846 361.01 201.716 346.196 201.716 346.196L213.686 341.638Z" fill="#FFB9B9"/>
<path d="M184.617 212.873L180.627 215.721C180.627 215.721 167.517 287.511 180.627 306.313C193.737 325.115 194.877 323.976 194.877 323.976C194.877 323.976 197.157 322.266 198.296 333.661C199.436 345.057 197.727 349.615 201.146 349.615C204.566 349.615 219.956 346.196 218.816 343.347C217.676 340.499 210.266 323.976 209.696 319.987C209.126 315.999 206.276 306.883 205.136 301.755C203.996 296.627 210.266 293.778 207.416 282.953C204.566 272.127 200.576 252.756 200.576 248.767C200.576 244.779 184.617 212.873 184.617 212.873Z" fill="#94CCFC"/>
<path d="M204.281 162.164C204.281 168.3 212.703 173.274 223.091 173.274C233.479 173.274 243.04 176.562 243.04 170.426C243.04 164.289 233.479 151.054 223.091 151.054C212.703 151.054 204.281 156.028 204.281 162.164Z" fill="#272727"/>
<path d="M250.279 191.364C250.279 191.364 251.047 212.018 230.514 210.878C209.981 209.739 233.289 193.223 233.289 193.223L250.279 191.364Z" fill="#272727"/>
<g clip-path="url(#clip0)">
<path d="M344 64.7189C344 77.8184 333.381 88.4375 320.281 88.4375C318.769 88.4375 317.291 88.2944 315.857 88.0239L312.621 91.6645C312.318 92.0058 311.946 92.2791 311.529 92.4662C311.112 92.6533 310.661 92.75 310.204 92.75H305.188V98.1406C305.188 99.9269 303.739 101.375 301.953 101.375H296.562V106.766C296.562 108.552 295.114 110 293.328 110H278.234C276.448 110 275 108.552 275 106.766V96.246C275 95.3882 275.341 94.5654 275.947 93.9588L297.753 72.1535C296.981 69.8148 296.562 67.3158 296.562 64.7188C296.562 51.6193 307.182 41.0001 320.281 41C333.419 40.9999 344 51.5806 344 64.7189ZM320.281 58.25C320.281 61.8226 323.177 64.7188 326.75 64.7188C330.323 64.7188 333.219 61.8226 333.219 58.25C333.219 54.6774 330.323 51.7812 326.75 51.7812C323.177 51.7812 320.281 54.6774 320.281 58.25Z" fill="#94CCFC"/>
</g>
<defs>
<clipPath id="clip0">
<rect width="69" height="69" fill="white" transform="translate(275 41)"/>
</clipPath>
</defs>
</svg>
