<svg width="516" height="475" viewBox="0 0 516 475" fill="none" xmlns="http://www.w3.org/2000/svg">
<path d="M0 4C0 1.79086 1.79086 0 4 0H512C514.209 0 516 1.79086 516 4V326.824C516 329.033 514.209 330.824 512 330.824H4C1.79086 330.824 0 329.033 0 326.824V4Z" fill="#191919"/>
<path d="M240.26 475C322.284 475 388.777 463.934 388.777 450.283C388.777 436.633 322.284 425.567 240.26 425.567C158.237 425.567 91.7437 436.633 91.7437 450.283C91.7437 463.934 158.237 475 240.26 475Z" fill="#94CCFC" fill-opacity="0.1"/>
<path d="M35.1626 18.8576C36.6648 18.8576 37.8826 17.6385 37.8826 16.1347C37.8826 14.6308 36.6648 13.4117 35.1626 13.4117C33.6603 13.4117 32.4425 14.6308 32.4425 16.1347C32.4425 17.6385 33.6603 18.8576 35.1626 18.8576Z" fill="#94CCFC"/>
<path d="M16.1226 18.8576C17.6249 18.8576 18.8427 17.6385 18.8427 16.1347C18.8427 14.6308 17.6249 13.4117 16.1226 13.4117C14.6204 13.4117 13.4026 14.6308 13.4026 16.1347C13.4026 17.6385 14.6204 18.8576 16.1226 18.8576Z" fill="#94CCFC"/>
<path d="M25.6426 18.8576C27.1449 18.8576 28.3627 17.6385 28.3627 16.1347C28.3627 14.6308 27.1449 13.4117 25.6426 13.4117C24.1404 13.4117 22.9225 14.6308 22.9225 16.1347C22.9225 17.6385 24.1404 18.8576 25.6426 18.8576Z" fill="#94CCFC"/>
<g filter="url(#filter0_ddd)">
<path d="M76.5451 93.6046L36.7995 108.977C34.7391 109.774 33.714 112.09 34.5098 114.151L42.4596 134.737C43.2554 136.798 45.5708 137.823 47.6312 137.026L87.3768 121.654C89.4372 120.857 90.4624 118.54 89.6666 116.479L81.7168 95.8931C80.9209 93.8323 78.6055 92.8077 76.5451 93.6046Z" fill="#232323"/>
</g>
<ellipse cx="44.1169" cy="113.441" rx="3.90909" ry="3.91176" fill="#94CCFC" fill-opacity="0.38"/>
<path d="M46.8589 122.589L68.054 114.392C68.5691 114.193 68.8253 113.613 68.6264 113.098L68.5417 112.879C68.3427 112.364 67.7639 112.108 67.2488 112.307L46.0537 120.504C45.5386 120.704 45.2823 121.283 45.4812 121.798L45.5659 122.017C45.7649 122.532 46.3438 122.789 46.8589 122.589Z" fill="#94CCFC" fill-opacity="0.38"/>
<path d="M47.7779 125.837L63.6607 119.694C63.9183 119.594 64.0464 119.304 63.947 119.047L63.9046 118.937C63.8051 118.68 63.5157 118.552 63.2581 118.651L47.3753 124.794C47.1178 124.894 46.9896 125.183 47.0891 125.441L47.1315 125.551C47.2309 125.808 47.5204 125.936 47.7779 125.837Z" fill="#94CCFC" fill-opacity="0.38"/>
<g filter="url(#filter1_ddd)">
<path d="M70.2815 157.913L30.5359 173.286C28.4755 174.083 27.4504 176.399 28.2462 178.46L36.196 199.046C36.9918 201.107 39.3072 202.132 41.3676 201.335L81.1132 185.962C83.1736 185.166 84.1988 182.849 83.4029 180.788L75.4532 160.202C74.6573 158.141 72.3419 157.117 70.2815 157.913Z" fill="#232323"/>
</g>
<ellipse cx="37.8532" cy="177.75" rx="3.90909" ry="3.91177" fill="#94CCFC" fill-opacity="0.38"/>
<path d="M40.5952 186.898L61.7904 178.701C62.3055 178.501 62.5617 177.922 62.3628 177.407L62.2781 177.188C62.0791 176.673 61.5003 176.416 60.9852 176.616L39.7901 184.813C39.275 185.012 39.0187 185.592 39.2176 186.107L39.3023 186.326C39.5013 186.841 40.0801 187.098 40.5952 186.898Z" fill="#94CCFC" fill-opacity="0.38"/>
<path d="M41.5143 190.145L57.3971 184.003C57.6547 183.903 57.7828 183.613 57.6833 183.356L57.641 183.246C57.5415 182.988 57.2521 182.86 56.9945 182.96L41.1117 189.103C40.8542 189.203 40.726 189.492 40.8255 189.75L40.8678 189.859C40.9673 190.117 41.2567 190.245 41.5143 190.145Z" fill="#94CCFC" fill-opacity="0.38"/>
<path d="M156.665 192.501L93.3104 211.006C91.19 211.625 89.9725 213.846 90.5911 215.967L100.663 250.497C101.282 252.618 103.502 253.835 105.622 253.216L168.977 234.711C171.098 234.091 172.315 231.87 171.696 229.749L161.625 195.219C161.006 193.099 158.785 191.881 156.665 192.501Z" fill="#53565A"/>
<ellipse rx="5.71608" ry="5.71929" transform="matrix(0.996398 0.0847981 -0.0845873 0.996416 105.193 217.901)" fill="#94CCFC"/>
<path d="M107.612 231.698L140.393 222.123C140.923 221.968 141.228 221.412 141.073 220.882L140.718 219.664C140.563 219.134 140.008 218.83 139.478 218.985L106.697 228.56C106.167 228.715 105.863 229.27 106.017 229.8L106.373 231.018C106.527 231.549 107.082 231.853 107.612 231.698Z" fill="#94CCFC"/>
<path d="M108.771 236.478L133.115 229.367C133.38 229.29 133.532 229.012 133.455 228.747L133.277 228.138C133.2 227.873 132.922 227.721 132.657 227.798L108.314 234.909C108.049 234.986 107.897 235.264 107.974 235.529L108.151 236.138C108.229 236.403 108.506 236.555 108.771 236.478Z" fill="#94CCFC"/>
<g filter="url(#filter2_ddd)">
<path d="M156.665 192.501L93.3104 211.006C91.19 211.625 89.9725 213.846 90.5911 215.967L100.663 250.497C101.282 252.618 103.502 253.835 105.622 253.216L168.977 234.711C171.098 234.091 172.315 231.87 171.696 229.749L161.625 195.219C161.006 193.099 158.785 191.881 156.665 192.501Z" fill="#2F2F2F"/>
</g>
<ellipse rx="5.71608" ry="5.71929" transform="matrix(0.996398 0.0847981 -0.0845873 0.996416 105.193 217.901)" fill="#94CCFC" fill-opacity="0.6"/>
<path d="M107.612 231.698L140.393 222.123C140.923 221.968 141.228 221.412 141.073 220.882L140.718 219.664C140.563 219.134 140.008 218.83 139.478 218.985L106.697 228.56C106.167 228.715 105.863 229.27 106.017 229.8L106.373 231.018C106.527 231.549 107.082 231.853 107.612 231.698Z" fill="#94CCFC" fill-opacity="0.6"/>
<path d="M108.771 236.478L133.115 229.367C133.38 229.29 133.532 229.012 133.455 228.747L133.277 228.138C133.2 227.873 132.922 227.721 132.657 227.798L108.314 234.909C108.049 234.986 107.897 235.264 107.974 235.529L108.151 236.138C108.229 236.403 108.506 236.555 108.771 236.478Z" fill="#94CCFC" fill-opacity="0.6"/>
<g filter="url(#filter3_ddd)">
<path d="M238.359 146.438L175.863 138.125C173.673 137.833 171.663 139.373 171.372 141.563L166.875 175.462C166.585 177.652 168.124 179.664 170.313 179.955L232.81 188.268C234.999 188.559 237.01 187.02 237.3 184.83L241.797 150.931C242.088 148.741 240.549 146.729 238.359 146.438Z" fill="#2F2F2F"/>
</g>
<ellipse rx="5.48857" ry="5.48889" transform="matrix(0.877012 0.480469 -0.479884 0.877332 183.472 148.768)" fill="#94CCFC" fill-opacity="0.6"/>
<path d="M180.286 161.826L212.704 166.136C213.251 166.209 213.754 165.824 213.827 165.276L213.976 164.151C214.049 163.604 213.664 163.101 213.117 163.028L180.699 158.718C180.152 158.645 179.649 159.03 179.576 159.577L179.427 160.702C179.354 161.25 179.739 161.753 180.286 161.826Z" fill="#94CCFC" fill-opacity="0.6"/>
<path d="M179.431 166.471L203.524 169.674C203.798 169.71 204.049 169.518 204.085 169.244L204.16 168.682C204.196 168.408 204.004 168.156 203.73 168.12L179.637 164.917C179.364 164.88 179.112 165.073 179.076 165.347L179.001 165.909C178.965 166.183 179.157 166.434 179.431 166.471Z" fill="#94CCFC" fill-opacity="0.6"/>
<g filter="url(#filter4_ddd)">
<path d="M202.177 174.543L141.79 166.51C139.601 166.219 137.591 167.758 137.3 169.949L132.969 202.594C132.679 204.784 134.218 206.796 136.407 207.087L196.794 215.12C198.983 215.411 200.994 213.872 201.284 211.681L205.615 179.036C205.906 176.846 204.367 174.834 202.177 174.543Z" fill="#3D3D3D"/>
</g>
<ellipse rx="5.32414" ry="5.32445" transform="matrix(0.877012 0.480469 -0.479884 0.877332 149.053 176.819)" fill="#94CCFC"/>
<path d="M145.992 189.489L177.38 193.662C177.927 193.735 178.43 193.35 178.502 192.803L178.639 191.771C178.712 191.223 178.327 190.72 177.78 190.648L146.393 186.474C145.845 186.401 145.343 186.786 145.27 187.334L145.133 188.366C145.06 188.913 145.445 189.416 145.992 189.489Z" fill="#94CCFC"/>
<path d="M145.148 193.993L168.49 197.096C168.763 197.133 169.015 196.94 169.051 196.666L169.119 196.151C169.156 195.877 168.963 195.625 168.69 195.589L145.348 192.486C145.074 192.449 144.823 192.642 144.787 192.916L144.718 193.431C144.682 193.705 144.874 193.957 145.148 193.993Z" fill="#94CCFC"/>
<g filter="url(#filter5_ddd)">
<path d="M263.241 177.744L200.401 196.274C198.282 196.899 197.07 199.123 197.694 201.243L207.773 235.469C208.397 237.588 210.621 238.799 212.74 238.175L275.58 219.644C277.699 219.02 278.91 216.795 278.286 214.676L268.207 180.45C267.583 178.33 265.36 177.119 263.241 177.744Z" fill="#2F2F2F"/>
</g>
<ellipse rx="5.67846" ry="5.68165" transform="matrix(0.996614 0.0822298 -0.0820252 0.99663 212.198 203.101)" fill="#94CCFC" fill-opacity="0.6"/>
<path d="M214.643 216.799L247.171 207.207C247.7 207.05 248.003 206.494 247.847 205.965L247.495 204.768C247.339 204.238 246.783 203.935 246.253 204.092L213.725 213.684C213.196 213.84 212.893 214.397 213.049 214.926L213.401 216.123C213.557 216.652 214.113 216.955 214.643 216.799Z" fill="#94CCFC" fill-opacity="0.6"/>
<path d="M215.803 221.545L239.962 214.421C240.227 214.343 240.378 214.065 240.3 213.8L240.124 213.202C240.046 212.937 239.768 212.785 239.503 212.863L215.344 219.988C215.08 220.066 214.928 220.344 215.006 220.609L215.182 221.207C215.26 221.472 215.538 221.624 215.803 221.545Z" fill="#94CCFC" fill-opacity="0.6"/>
<g filter="url(#filter6_ddd)">
<path d="M218.63 221.531L153.196 212.827C151.007 212.536 148.996 214.075 148.706 216.266L143.977 251.909C143.686 254.099 145.226 256.111 147.415 256.402L212.849 265.106C215.039 265.398 217.049 263.858 217.34 261.668L222.068 226.024C222.359 223.834 220.82 221.822 218.63 221.531Z" fill="#3D3D3D"/>
</g>
<ellipse rx="5.71751" ry="5.71784" transform="matrix(0.877012 0.480469 -0.479884 0.877332 161.288 223.937)" fill="#94CCFC"/>
<path d="M157.928 237.533L191.781 242.034C192.328 242.107 192.831 241.722 192.904 241.175L193.07 239.92C193.143 239.372 192.758 238.869 192.211 238.797L158.358 234.295C157.811 234.223 157.308 234.608 157.235 235.155L157.069 236.41C156.996 236.957 157.381 237.46 157.928 237.533Z" fill="#94CCFC"/>
<path d="M157.058 242.375L182.197 245.717C182.471 245.754 182.722 245.561 182.759 245.287L182.842 244.66C182.878 244.386 182.686 244.135 182.412 244.099L157.273 240.756C156.999 240.72 156.748 240.912 156.712 241.186L156.628 241.813C156.592 242.087 156.784 242.339 157.058 242.375Z" fill="#94CCFC"/>
<g filter="url(#filter7_ddd)">
<path d="M400.507 142.957L359.777 161.521C357.767 162.437 356.879 164.81 357.794 166.82L367.46 188.063C368.375 190.074 370.747 190.961 372.757 190.045L413.487 171.481C415.497 170.564 416.385 168.192 415.47 166.181L405.803 144.938C404.888 142.928 402.517 142.041 400.507 142.957Z" fill="#232323"/>
</g>
<ellipse rx="4.0748" ry="4.07724" transform="matrix(0.998281 -0.0586079 0.0584576 0.99829 367.817 165.648)" fill="#94CCFC" fill-opacity="0.38"/>
<path d="M371.19 175.017L392.822 165.157C393.324 164.928 393.546 164.335 393.318 163.833L393.181 163.533C392.952 163.03 392.36 162.808 391.857 163.037L370.225 172.897C369.722 173.126 369.5 173.719 369.729 174.221L369.866 174.521C370.094 175.024 370.687 175.246 371.19 175.017Z" fill="#94CCFC" fill-opacity="0.38"/>
<path d="M372.363 178.331L388.554 170.951C388.806 170.837 388.917 170.54 388.802 170.289L388.734 170.139C388.62 169.888 388.323 169.777 388.072 169.891L371.881 177.271C371.63 177.385 371.519 177.682 371.633 177.933L371.701 178.083C371.816 178.334 372.112 178.445 372.363 178.331Z" fill="#94CCFC" fill-opacity="0.38"/>
<g filter="url(#filter8_ddd)">
<path d="M291.073 110.503L246.994 118.229C244.819 118.61 243.364 120.684 243.745 122.86L247.773 145.858C248.154 148.034 250.227 149.489 252.402 149.108L296.481 141.382C298.657 141 300.112 138.927 299.731 136.751L295.703 113.753C295.322 111.577 293.249 110.122 291.073 110.503Z" fill="#232323"/>
</g>
<ellipse rx="4.0752" ry="4.07681" transform="matrix(0.980941 0.194308 -0.193893 0.981023 253.741 124.25)" fill="#94CCFC" fill-opacity="0.38"/>
<path d="M254.654 134.167L278.066 130.062C278.61 129.967 278.974 129.448 278.879 128.904L278.822 128.579C278.727 128.035 278.208 127.671 277.664 127.766L254.251 131.871C253.708 131.966 253.344 132.485 253.439 133.029L253.496 133.354C253.591 133.899 254.11 134.262 254.654 134.167Z" fill="#94CCFC" fill-opacity="0.38"/>
<path d="M254.957 137.67L272.481 134.597C272.753 134.549 272.935 134.29 272.888 134.018L272.859 133.855C272.811 133.583 272.552 133.401 272.28 133.449L254.756 136.521C254.484 136.569 254.303 136.828 254.35 137.1L254.379 137.263C254.426 137.535 254.685 137.717 254.957 137.67Z" fill="#94CCFC" fill-opacity="0.38"/>
<g filter="url(#filter9_ddd)">
<path d="M338.879 147.555L276.382 139.242C274.193 138.951 272.182 140.49 271.892 142.681L267.395 176.579C267.104 178.77 268.644 180.781 270.833 181.073L333.329 189.386C335.519 189.677 337.529 188.138 337.82 185.947L342.317 152.049C342.607 149.858 341.068 147.847 338.879 147.555Z" fill="#2F2F2F"/>
</g>
<ellipse rx="5.48858" ry="5.48889" transform="matrix(0.877012 0.480468 -0.479885 0.877331 283.991 149.886)" fill="#94CCFC" fill-opacity="0.6"/>
<path d="M280.806 162.943L313.224 167.254C313.771 167.326 314.274 166.941 314.346 166.394L314.496 165.269C314.568 164.721 314.183 164.218 313.636 164.146L281.218 159.835C280.671 159.762 280.168 160.147 280.096 160.695L279.946 161.82C279.874 162.367 280.258 162.87 280.806 162.943Z" fill="#94CCFC" fill-opacity="0.6"/>
<path d="M279.951 167.588L304.044 170.791C304.317 170.828 304.569 170.635 304.605 170.362L304.68 169.799C304.716 169.525 304.523 169.274 304.25 169.238L280.157 166.034C279.883 165.998 279.632 166.19 279.595 166.464L279.521 167.027C279.485 167.3 279.677 167.552 279.951 167.588Z" fill="#94CCFC" fill-opacity="0.6"/>
<g filter="url(#filter10_ddd)">
<path d="M372.984 169.109L310.827 189.494C308.728 190.182 307.584 192.442 308.271 194.542L319.356 228.389C320.043 230.489 322.302 231.633 324.402 230.944L386.558 210.56C388.657 209.871 389.802 207.611 389.114 205.512L378.03 171.664C377.342 169.564 375.083 168.42 372.984 169.109Z" fill="#3D3D3D"/>
</g>
<ellipse rx="5.67041" ry="5.67387" transform="matrix(0.99864 0.0521415 -0.0520068 0.998647 322.802 195.953)" fill="#94CCFC"/>
<path d="M325.655 209.552L357.832 198.999C358.357 198.827 358.643 198.262 358.471 197.737L358.084 196.557C357.913 196.032 357.348 195.746 356.823 195.918L324.646 206.471C324.121 206.643 323.835 207.208 324.007 207.733L324.394 208.914C324.566 209.439 325.131 209.725 325.655 209.552Z" fill="#94CCFC"/>
<path d="M326.955 214.255L350.854 206.417C351.116 206.331 351.259 206.048 351.174 205.786L350.98 205.196C350.894 204.933 350.612 204.79 350.35 204.876L326.451 212.714C326.188 212.8 326.045 213.083 326.131 213.345L326.325 213.936C326.411 214.198 326.693 214.341 326.955 214.255Z" fill="#94CCFC"/>
<g filter="url(#filter11_ddd)">
<path d="M316.401 65.4909L264.637 83.7015C262.553 84.4346 261.457 86.7186 262.189 88.8029L271.917 116.497C272.65 118.581 274.932 119.677 277.016 118.944L328.781 100.733C330.865 99.9998 331.961 97.7158 331.228 95.6315L321.5 67.9374C320.768 65.8531 318.485 64.7577 316.401 65.4909Z" fill="#2F2F2F"/>
</g>
<ellipse rx="4.85614" ry="4.85926" transform="matrix(0.999526 0.0307816 -0.0307 0.999529 274.466 89.2031)" fill="#94CCFC"/>
<path d="M277.293 100.747L304.38 91.2177C304.901 91.0344 305.175 90.4634 304.992 89.9424L304.734 89.2096C304.551 88.6885 303.981 88.4146 303.46 88.5979L276.373 98.1272C275.852 98.3105 275.578 98.8815 275.761 99.4026L276.018 100.135C276.201 100.656 276.772 100.93 277.293 100.747Z" fill="#94CCFC"/>
<path d="M278.424 104.774L298.608 97.673C298.869 97.5814 299.006 97.2959 298.914 97.0353L298.786 96.6689C298.694 96.4084 298.409 96.2715 298.148 96.3631L277.964 103.464C277.704 103.556 277.567 103.841 277.658 104.102L277.787 104.468C277.879 104.729 278.164 104.865 278.424 104.774Z" fill="#94CCFC"/>
<g filter="url(#filter12_ddd)">
<path d="M479.716 80.9192L440.516 95.9509C438.453 96.7419 437.421 99.0555 438.211 101.119L445.968 121.377C446.758 123.44 449.07 124.472 451.133 123.681L490.333 108.649C492.395 107.858 493.427 105.544 492.637 103.481L484.881 83.2226C484.091 81.1595 481.778 80.1282 479.716 80.9192Z" fill="#232323"/>
</g>
<ellipse rx="3.86034" ry="3.86296" transform="matrix(0.999996 0.00287904 -0.00287122 0.999996 447.682 100.398)" fill="#94CCFC" fill-opacity="0.38"/>
<path d="M450.376 109.435L471.306 101.409C471.822 101.211 472.08 100.633 471.883 100.117L471.808 99.9236C471.611 99.4078 471.033 99.15 470.517 99.3478L449.587 107.374C449.071 107.572 448.813 108.15 449.01 108.666L449.085 108.859C449.282 109.375 449.86 109.633 450.376 109.435Z" fill="#94CCFC" fill-opacity="0.38"/>
<path d="M451.268 112.647L466.959 106.63C467.217 106.531 467.346 106.242 467.247 105.984L467.21 105.887C467.111 105.629 466.822 105.501 466.564 105.599L450.874 111.616C450.616 111.715 450.487 112.004 450.586 112.262L450.623 112.359C450.721 112.617 451.011 112.746 451.268 112.647Z" fill="#94CCFC" fill-opacity="0.38"/>
<g filter="url(#filter13_ddd)">
<path d="M449.315 59.4236L385.663 83.8318C383.6 84.6227 382.569 86.9364 383.358 88.9995L396.678 123.787C397.468 125.85 399.78 126.881 401.843 126.09L465.495 101.682C467.557 100.891 468.589 98.5774 467.799 96.5143L454.48 61.727C453.69 59.6639 451.378 58.6326 449.315 59.4236Z" fill="#3D3D3D"/>
</g>
<ellipse rx="5.8829" ry="5.8869" transform="matrix(0.999996 0.00287905 -0.00287121 0.999996 398.541 89.8585)" fill="#94CCFC" fill-opacity="0.6"/>
<path d="M402.157 103.818L435.032 91.2116C435.548 91.0138 435.806 90.4354 435.608 89.9196L435.121 88.6461C434.923 88.1303 434.345 87.8725 433.829 88.0703L400.954 100.677C400.438 100.874 400.18 101.453 400.378 101.969L400.866 103.242C401.063 103.758 401.641 104.016 402.157 103.818Z" fill="#94CCFC" fill-opacity="0.6"/>
<path d="M403.762 108.618L428.162 99.2618C428.42 99.1629 428.549 98.8737 428.45 98.6158L428.206 97.9791C428.108 97.7212 427.818 97.5923 427.561 97.6911L403.16 107.048C402.902 107.147 402.773 107.436 402.872 107.694L403.116 108.331C403.215 108.588 403.504 108.717 403.762 108.618Z" fill="#94CCFC" fill-opacity="0.6"/>
<g filter="url(#filter14_ddd)">
<path d="M351.465 205.018L278.245 178.666C276.167 177.918 273.876 178.997 273.129 181.076L258.593 221.517C257.846 223.596 258.925 225.888 261.003 226.636L334.223 252.988C336.301 253.736 338.591 252.657 339.339 250.577L353.874 210.137C354.622 208.058 353.543 205.766 351.465 205.018Z" fill="#4D4D4D"/>
</g>
<ellipse rx="6.62985" ry="6.62985" transform="matrix(0.755491 0.655159 -0.654642 0.755939 285.287 193.458)" fill="#94CCFC"/>
<path d="M277.995 207.989L315.557 221.508C316.076 221.694 316.649 221.425 316.836 220.905L317.441 219.222C317.628 218.702 317.358 218.129 316.839 217.942L279.277 204.424C278.757 204.237 278.185 204.507 277.998 205.026L277.393 206.71C277.206 207.229 277.476 207.802 277.995 207.989Z" fill="#94CCFC"/>
<path d="M275.897 213.289L303.718 223.301C303.978 223.395 304.264 223.26 304.358 223L304.66 222.158C304.753 221.898 304.619 221.612 304.359 221.518L276.538 211.506C276.278 211.412 275.992 211.547 275.899 211.807L275.596 212.649C275.503 212.909 275.637 213.195 275.897 213.289Z" fill="#94CCFC"/>
<path d="M231.683 317.418C231.755 317.488 231.847 317.532 231.945 317.544C232.044 317.557 232.144 317.537 232.23 317.489C232.046 317.493 231.861 317.469 231.683 317.418Z" fill="url(#paint0_linear)"/>
<path d="M252.371 325.5L251.829 328.443L251.417 330.693L250.659 334.812L243.312 339.96C243.312 339.96 242.649 339.398 241.555 338.499C238.544 336.017 232.215 330.965 227.568 328.252C226.372 327.49 225.079 326.894 223.723 326.479L252.371 325.5Z" fill="#FFBDC6"/>
<path d="M246.976 327.705C246.976 327.705 255.548 329.177 256.035 325.5C256.521 321.823 251.628 319.864 247.462 319.618C243.297 319.372 218.318 321.09 218.318 321.09C218.318 321.09 213.912 326.972 229.826 327.951L246.976 327.705Z" fill="#2C3740"/>
<path d="M265.716 206.879H220.898V260.065H265.716V206.879Z" fill="#010E32"/>
<path d="M168.366 297.93C167.628 298.116 166.685 298.83 165.636 299.864C161.119 304.339 154.649 314.842 154.649 314.842C146.378 304.982 155.508 297.197 159.432 294.515C160.381 293.867 161.018 293.51 161.018 293.51L168.366 297.93Z" fill="#FFBDC6"/>
<path d="M251.869 223.67C251.869 223.67 254.072 239.11 261.666 242.786C269.259 246.463 251.869 253.334 251.869 253.334L228.115 244.509C228.115 244.509 241.585 240.099 238.89 227.106L251.869 223.67Z" fill="#FFBDC6"/>
<path d="M226.403 316.554L225.861 319.498L225.45 321.748L224.692 325.867L217.345 331.015C217.345 331.015 216.682 330.452 215.588 329.553C212.577 327.072 206.248 322.019 201.6 319.307C200.405 318.545 199.112 317.948 197.756 317.534L226.403 316.554Z" fill="#FFBDC6"/>
<path d="M221.018 318.76C221.018 318.76 229.59 320.231 230.077 316.555C230.564 312.878 225.671 310.919 221.505 310.673C217.339 310.427 192.361 312.145 192.361 312.145C192.361 312.145 187.954 318.026 203.869 319.006L221.018 318.76Z" fill="#2C3740"/>
<path d="M273.952 377.861C273.617 377.697 273.283 377.53 272.948 377.359L272.05 376.219L260.2 361.161V361.417C260.12 363.928 259.272 383.828 252.617 385.667C245.515 387.625 236.943 388.118 233.043 374.883C229.144 361.648 222.002 332.728 214.674 331.015L225.57 322.069C225.57 322.069 232.787 330.518 235.733 338.604C235.623 338.102 230.639 314.792 234.755 310.673H270.489C270.489 310.673 276.009 326.404 279.794 334.199C282.74 340.251 287.161 354.561 290.007 364.245C292.822 373.828 282.925 382.256 273.952 377.861Z" fill="#2C3740"/>
<path d="M272.948 314.35C267.427 317.619 243.191 316.288 235.307 315.756L233.164 315.6L232.808 315.575L233.199 315.475L235.104 314.618L239.297 298.307L270.765 280.05C270.127 281.973 269.912 284.917 269.962 288.287C270.087 299.106 272.948 314.35 272.948 314.35Z" fill="#A0A0A0"/>
<path opacity="0.1" d="M161.028 293.516L168.376 297.925C167.638 298.111 166.695 298.824 165.646 299.859C165.033 298.071 161.184 295.575 159.442 294.515C160.381 293.867 161.028 293.516 161.028 293.516Z" fill="black"/>
<path opacity="0.1" d="M231.819 315.891C231.738 315.933 231.647 315.949 231.557 315.937C231.467 315.924 231.383 315.884 231.317 315.821C231.48 315.869 231.649 315.892 231.819 315.891Z" fill="black"/>
<path d="M248.446 241.807C248.446 241.807 241.836 242.54 237.179 237.638C237.179 237.638 217.606 243.274 210.976 256.021C204.346 268.769 159.282 293.767 159.282 293.767C159.282 293.767 167.116 298.176 166.383 300.381L195.995 283.224C195.995 283.224 206.534 275.625 209.465 273.912C212.396 272.199 228.567 261.657 231.994 290.331C235.422 319.005 231.994 315.575 231.994 315.575C231.994 315.575 236.893 317.293 243.994 303.566C251.096 289.839 273.179 286.649 273.179 286.649L274.403 272.189C274.403 272.189 278.775 262.606 275.407 258.628C274.385 257.452 273.706 256.016 273.445 254.479C272.888 250.808 273.445 244.69 281.239 239.607C293.239 231.767 297.892 225.393 297.892 225.393C297.892 225.393 298.137 220.737 290.79 218.532C283.442 216.327 253.565 204.318 253.565 204.318L252.562 208.486L276.07 225.152C276.07 225.152 264.316 234.695 254.991 234.464C255.061 234.454 256.772 241.561 248.446 241.807Z" fill="#43596B"/>
<path d="M242.203 235.062C249.911 235.062 256.16 228.808 256.16 221.094C256.16 213.379 249.911 207.125 242.203 207.125C234.494 207.125 228.245 213.379 228.245 221.094C228.245 228.808 234.494 235.062 242.203 235.062Z" fill="#FFBDC6"/>
<path d="M249.626 188.838C253.5 189.275 257.184 190.942 260.993 191.851C261.946 192.149 262.961 192.187 263.934 191.962C265.44 191.505 266.619 189.953 268.155 189.998C269.104 190.028 269.937 190.671 270.715 191.289C271.964 192.242 273.138 193.29 274.228 194.423C276.858 197.281 278.489 201.128 280.893 204.237C283.297 207.346 287.076 209.762 290.484 208.336C288.165 217.377 280.572 224.263 272.356 224.825C269.078 225.051 265.721 224.363 262.549 225.328C261.759 225.65 260.925 225.854 260.075 225.93C258.248 225.93 256.777 224.253 255.638 222.62C252.968 218.783 250.855 214.428 247.849 210.928C246.845 209.772 245.686 208.672 244.281 208.461C242.875 208.25 241.585 208.918 240.336 209.566C238.273 210.636 236.16 211.741 234.564 213.585C232.968 215.428 231.959 218.155 232.617 220.616C232.973 221.952 233.786 223.158 233.801 224.554C233.826 226.779 231.864 228.411 231.473 230.581C231.387 231.493 231.355 232.408 231.377 233.324C231.207 236.297 229.264 238.733 227.237 240.602C226.449 241.33 225.575 242.108 225.345 243.228C225.189 243.997 225.345 244.806 225.244 245.584C224.948 247.513 223.026 248.492 221.324 248.743C219.337 249.035 217.307 248.794 215.442 248.045C217.821 246.915 219.282 243.716 218.735 240.843C217.977 236.865 213.982 234.012 214.318 229.958C214.506 228.716 214.878 227.509 215.422 226.377C216.295 224.19 216.929 221.915 217.314 219.592C217.611 217.799 217.756 215.895 217.199 214.182C216.697 212.625 215.648 211.385 214.76 210.069C213.56 208.277 212.615 206.328 211.949 204.278C211.706 203.669 211.613 203.011 211.678 202.359C211.88 201.589 212.309 200.898 212.908 200.375C215.096 198.08 217.425 195.689 220.351 195.036C221.747 194.803 223.167 194.749 224.577 194.875C227.029 194.954 229.483 194.85 231.919 194.564C233.927 194.328 237.319 194.363 239.026 193.057C240.612 191.836 241.5 190.314 243.457 189.541C245.426 188.81 247.543 188.569 249.626 188.838Z" fill="#010E32"/>
<defs>
<filter id="filter0_ddd" x="29.2401" y="89.3342" width="65.6962" height="53.9619" filterUnits="userSpaceOnUse" color-interpolation-filters="sRGB">
<feFlood flood-opacity="0" result="BackgroundImageFix"/>
<feColorMatrix in="SourceAlpha" type="matrix" values="0 0 0 0 0 0 0 0 0 0 0 0 0 0 0 0 0 0 127 0"/>
<feOffset dy="1"/>
<feGaussianBlur stdDeviation="2.5"/>
<feColorMatrix type="matrix" values="0 0 0 0 0 0 0 0 0 0 0 0 0 0 0 0 0 0 0.2 0"/>
<feBlend mode="normal" in2="BackgroundImageFix" result="effect1_dropShadow"/>
<feColorMatrix in="SourceAlpha" type="matrix" values="0 0 0 0 0 0 0 0 0 0 0 0 0 0 0 0 0 0 127 0"/>
<feOffset dy="3"/>
<feGaussianBlur stdDeviation="0.5"/>
<feColorMatrix type="matrix" values="0 0 0 0 0 0 0 0 0 0 0 0 0 0 0 0 0 0 0.12 0"/>
<feBlend mode="normal" in2="effect1_dropShadow" result="effect2_dropShadow"/>
<feColorMatrix in="SourceAlpha" type="matrix" values="0 0 0 0 0 0 0 0 0 0 0 0 0 0 0 0 0 0 127 0"/>
<feOffset dy="2"/>
<feGaussianBlur stdDeviation="1"/>
<feColorMatrix type="matrix" values="0 0 0 0 0 0 0 0 0 0 0 0 0 0 0 0 0 0 0.14 0"/>
<feBlend mode="normal" in2="effect2_dropShadow" result="effect3_dropShadow"/>
<feBlend mode="normal" in="SourceGraphic" in2="effect3_dropShadow" result="shape"/>
</filter>
<filter id="filter1_ddd" x="22.9765" y="153.643" width="65.6962" height="53.9619" filterUnits="userSpaceOnUse" color-interpolation-filters="sRGB">
<feFlood flood-opacity="0" result="BackgroundImageFix"/>
<feColorMatrix in="SourceAlpha" type="matrix" values="0 0 0 0 0 0 0 0 0 0 0 0 0 0 0 0 0 0 127 0"/>
<feOffset dy="1"/>
<feGaussianBlur stdDeviation="2.5"/>
<feColorMatrix type="matrix" values="0 0 0 0 0 0 0 0 0 0 0 0 0 0 0 0 0 0 0.2 0"/>
<feBlend mode="normal" in2="BackgroundImageFix" result="effect1_dropShadow"/>
<feColorMatrix in="SourceAlpha" type="matrix" values="0 0 0 0 0 0 0 0 0 0 0 0 0 0 0 0 0 0 127 0"/>
<feOffset dy="3"/>
<feGaussianBlur stdDeviation="0.5"/>
<feColorMatrix type="matrix" values="0 0 0 0 0 0 0 0 0 0 0 0 0 0 0 0 0 0 0.12 0"/>
<feBlend mode="normal" in2="effect1_dropShadow" result="effect2_dropShadow"/>
<feColorMatrix in="SourceAlpha" type="matrix" values="0 0 0 0 0 0 0 0 0 0 0 0 0 0 0 0 0 0 127 0"/>
<feOffset dy="2"/>
<feGaussianBlur stdDeviation="1"/>
<feColorMatrix type="matrix" values="0 0 0 0 0 0 0 0 0 0 0 0 0 0 0 0 0 0 0.14 0"/>
<feBlend mode="normal" in2="effect2_dropShadow" result="effect3_dropShadow"/>
<feBlend mode="normal" in="SourceGraphic" in2="effect3_dropShadow" result="shape"/>
</filter>
<filter id="filter2_ddd" x="80.43" y="183.339" width="101.427" height="81.0376" filterUnits="userSpaceOnUse" color-interpolation-filters="sRGB">
<feFlood flood-opacity="0" result="BackgroundImageFix"/>
<feColorMatrix in="SourceAlpha" type="matrix" values="0 0 0 0 0 0 0 0 0 0 0 0 0 0 0 0 0 0 127 0"/>
<feOffset dy="2"/>
<feGaussianBlur stdDeviation="2"/>
<feColorMatrix type="matrix" values="0 0 0 0 0 0 0 0 0 0 0 0 0 0 0 0 0 0 0.2 0"/>
<feBlend mode="normal" in2="BackgroundImageFix" result="effect1_dropShadow"/>
<feColorMatrix in="SourceAlpha" type="matrix" values="0 0 0 0 0 0 0 0 0 0 0 0 0 0 0 0 0 0 127 0"/>
<feOffset dy="1"/>
<feGaussianBlur stdDeviation="5"/>
<feColorMatrix type="matrix" values="0 0 0 0 0 0 0 0 0 0 0 0 0 0 0 0 0 0 0.12 0"/>
<feBlend mode="normal" in2="effect1_dropShadow" result="effect2_dropShadow"/>
<feColorMatrix in="SourceAlpha" type="matrix" values="0 0 0 0 0 0 0 0 0 0 0 0 0 0 0 0 0 0 127 0"/>
<feOffset dy="4"/>
<feGaussianBlur stdDeviation="2.5"/>
<feColorMatrix type="matrix" values="0 0 0 0 0 0 0 0 0 0 0 0 0 0 0 0 0 0 0.14 0"/>
<feBlend mode="normal" in2="effect2_dropShadow" result="effect3_dropShadow"/>
<feBlend mode="normal" in="SourceGraphic" in2="effect3_dropShadow" result="shape"/>
</filter>
<filter id="filter3_ddd" x="156.84" y="129.089" width="94.9926" height="70.2145" filterUnits="userSpaceOnUse" color-interpolation-filters="sRGB">
<feFlood flood-opacity="0" result="BackgroundImageFix"/>
<feColorMatrix in="SourceAlpha" type="matrix" values="0 0 0 0 0 0 0 0 0 0 0 0 0 0 0 0 0 0 127 0"/>
<feOffset dy="2"/>
<feGaussianBlur stdDeviation="2"/>
<feColorMatrix type="matrix" values="0 0 0 0 0 0 0 0 0 0 0 0 0 0 0 0 0 0 0.2 0"/>
<feBlend mode="normal" in2="BackgroundImageFix" result="effect1_dropShadow"/>
<feColorMatrix in="SourceAlpha" type="matrix" values="0 0 0 0 0 0 0 0 0 0 0 0 0 0 0 0 0 0 127 0"/>
<feOffset dy="1"/>
<feGaussianBlur stdDeviation="5"/>
<feColorMatrix type="matrix" values="0 0 0 0 0 0 0 0 0 0 0 0 0 0 0 0 0 0 0.12 0"/>
<feBlend mode="normal" in2="effect1_dropShadow" result="effect2_dropShadow"/>
<feColorMatrix in="SourceAlpha" type="matrix" values="0 0 0 0 0 0 0 0 0 0 0 0 0 0 0 0 0 0 127 0"/>
<feOffset dy="4"/>
<feGaussianBlur stdDeviation="2.5"/>
<feColorMatrix type="matrix" values="0 0 0 0 0 0 0 0 0 0 0 0 0 0 0 0 0 0 0.14 0"/>
<feBlend mode="normal" in2="effect2_dropShadow" result="effect3_dropShadow"/>
<feBlend mode="normal" in="SourceGraphic" in2="effect3_dropShadow" result="shape"/>
</filter>
<filter id="filter4_ddd" x="118.934" y="155.474" width="100.717" height="77.6807" filterUnits="userSpaceOnUse" color-interpolation-filters="sRGB">
<feFlood flood-opacity="0" result="BackgroundImageFix"/>
<feColorMatrix in="SourceAlpha" type="matrix" values="0 0 0 0 0 0 0 0 0 0 0 0 0 0 0 0 0 0 127 0"/>
<feOffset dy="5"/>
<feGaussianBlur stdDeviation="2.5"/>
<feColorMatrix type="matrix" values="0 0 0 0 0 0 0 0 0 0 0 0 0 0 0 0 0 0 0.2 0"/>
<feBlend mode="normal" in2="BackgroundImageFix" result="effect1_dropShadow"/>
<feColorMatrix in="SourceAlpha" type="matrix" values="0 0 0 0 0 0 0 0 0 0 0 0 0 0 0 0 0 0 127 0"/>
<feOffset dy="3"/>
<feGaussianBlur stdDeviation="7"/>
<feColorMatrix type="matrix" values="0 0 0 0 0 0 0 0 0 0 0 0 0 0 0 0 0 0 0.12 0"/>
<feBlend mode="normal" in2="effect1_dropShadow" result="effect2_dropShadow"/>
<feColorMatrix in="SourceAlpha" type="matrix" values="0 0 0 0 0 0 0 0 0 0 0 0 0 0 0 0 0 0 127 0"/>
<feOffset dy="8"/>
<feGaussianBlur stdDeviation="5"/>
<feColorMatrix type="matrix" values="0 0 0 0 0 0 0 0 0 0 0 0 0 0 0 0 0 0 0.14 0"/>
<feBlend mode="normal" in2="effect2_dropShadow" result="effect3_dropShadow"/>
<feBlend mode="normal" in="SourceGraphic" in2="effect3_dropShadow" result="shape"/>
</filter>
<filter id="filter5_ddd" x="187.53" y="168.579" width="100.92" height="80.7595" filterUnits="userSpaceOnUse" color-interpolation-filters="sRGB">
<feFlood flood-opacity="0" result="BackgroundImageFix"/>
<feColorMatrix in="SourceAlpha" type="matrix" values="0 0 0 0 0 0 0 0 0 0 0 0 0 0 0 0 0 0 127 0"/>
<feOffset dy="2"/>
<feGaussianBlur stdDeviation="2"/>
<feColorMatrix type="matrix" values="0 0 0 0 0 0 0 0 0 0 0 0 0 0 0 0 0 0 0.2 0"/>
<feBlend mode="normal" in2="BackgroundImageFix" result="effect1_dropShadow"/>
<feColorMatrix in="SourceAlpha" type="matrix" values="0 0 0 0 0 0 0 0 0 0 0 0 0 0 0 0 0 0 127 0"/>
<feOffset dy="1"/>
<feGaussianBlur stdDeviation="5"/>
<feColorMatrix type="matrix" values="0 0 0 0 0 0 0 0 0 0 0 0 0 0 0 0 0 0 0.12 0"/>
<feBlend mode="normal" in2="effect1_dropShadow" result="effect2_dropShadow"/>
<feColorMatrix in="SourceAlpha" type="matrix" values="0 0 0 0 0 0 0 0 0 0 0 0 0 0 0 0 0 0 127 0"/>
<feOffset dy="4"/>
<feGaussianBlur stdDeviation="2.5"/>
<feColorMatrix type="matrix" values="0 0 0 0 0 0 0 0 0 0 0 0 0 0 0 0 0 0 0.14 0"/>
<feBlend mode="normal" in2="effect2_dropShadow" result="effect3_dropShadow"/>
<feBlend mode="normal" in="SourceGraphic" in2="effect3_dropShadow" result="shape"/>
</filter>
<filter id="filter6_ddd" x="129.942" y="201.792" width="106.162" height="81.3501" filterUnits="userSpaceOnUse" color-interpolation-filters="sRGB">
<feFlood flood-opacity="0" result="BackgroundImageFix"/>
<feColorMatrix in="SourceAlpha" type="matrix" values="0 0 0 0 0 0 0 0 0 0 0 0 0 0 0 0 0 0 127 0"/>
<feOffset dy="5"/>
<feGaussianBlur stdDeviation="2.5"/>
<feColorMatrix type="matrix" values="0 0 0 0 0 0 0 0 0 0 0 0 0 0 0 0 0 0 0.2 0"/>
<feBlend mode="normal" in2="BackgroundImageFix" result="effect1_dropShadow"/>
<feColorMatrix in="SourceAlpha" type="matrix" values="0 0 0 0 0 0 0 0 0 0 0 0 0 0 0 0 0 0 127 0"/>
<feOffset dy="3"/>
<feGaussianBlur stdDeviation="7"/>
<feColorMatrix type="matrix" values="0 0 0 0 0 0 0 0 0 0 0 0 0 0 0 0 0 0 0.12 0"/>
<feBlend mode="normal" in2="effect1_dropShadow" result="effect2_dropShadow"/>
<feColorMatrix in="SourceAlpha" type="matrix" values="0 0 0 0 0 0 0 0 0 0 0 0 0 0 0 0 0 0 127 0"/>
<feOffset dy="8"/>
<feGaussianBlur stdDeviation="5"/>
<feColorMatrix type="matrix" values="0 0 0 0 0 0 0 0 0 0 0 0 0 0 0 0 0 0 0.14 0"/>
<feBlend mode="normal" in2="effect2_dropShadow" result="effect3_dropShadow"/>
<feBlend mode="normal" in="SourceGraphic" in2="effect3_dropShadow" result="shape"/>
</filter>
<filter id="filter7_ddd" x="352.434" y="138.596" width="68.3967" height="57.8103" filterUnits="userSpaceOnUse" color-interpolation-filters="sRGB">
<feFlood flood-opacity="0" result="BackgroundImageFix"/>
<feColorMatrix in="SourceAlpha" type="matrix" values="0 0 0 0 0 0 0 0 0 0 0 0 0 0 0 0 0 0 127 0"/>
<feOffset dy="1"/>
<feGaussianBlur stdDeviation="2.5"/>
<feColorMatrix type="matrix" values="0 0 0 0 0 0 0 0 0 0 0 0 0 0 0 0 0 0 0.2 0"/>
<feBlend mode="normal" in2="BackgroundImageFix" result="effect1_dropShadow"/>
<feColorMatrix in="SourceAlpha" type="matrix" values="0 0 0 0 0 0 0 0 0 0 0 0 0 0 0 0 0 0 127 0"/>
<feOffset dy="3"/>
<feGaussianBlur stdDeviation="0.5"/>
<feColorMatrix type="matrix" values="0 0 0 0 0 0 0 0 0 0 0 0 0 0 0 0 0 0 0.12 0"/>
<feBlend mode="normal" in2="effect1_dropShadow" result="effect2_dropShadow"/>
<feColorMatrix in="SourceAlpha" type="matrix" values="0 0 0 0 0 0 0 0 0 0 0 0 0 0 0 0 0 0 127 0"/>
<feOffset dy="2"/>
<feGaussianBlur stdDeviation="1"/>
<feColorMatrix type="matrix" values="0 0 0 0 0 0 0 0 0 0 0 0 0 0 0 0 0 0 0.14 0"/>
<feBlend mode="normal" in2="effect2_dropShadow" result="effect3_dropShadow"/>
<feBlend mode="normal" in="SourceGraphic" in2="effect3_dropShadow" result="shape"/>
</filter>
<filter id="filter8_ddd" x="238.684" y="106.442" width="66.1073" height="48.7259" filterUnits="userSpaceOnUse" color-interpolation-filters="sRGB">
<feFlood flood-opacity="0" result="BackgroundImageFix"/>
<feColorMatrix in="SourceAlpha" type="matrix" values="0 0 0 0 0 0 0 0 0 0 0 0 0 0 0 0 0 0 127 0"/>
<feOffset dy="1"/>
<feGaussianBlur stdDeviation="2.5"/>
<feColorMatrix type="matrix" values="0 0 0 0 0 0 0 0 0 0 0 0 0 0 0 0 0 0 0.2 0"/>
<feBlend mode="normal" in2="BackgroundImageFix" result="effect1_dropShadow"/>
<feColorMatrix in="SourceAlpha" type="matrix" values="0 0 0 0 0 0 0 0 0 0 0 0 0 0 0 0 0 0 127 0"/>
<feOffset dy="3"/>
<feGaussianBlur stdDeviation="0.5"/>
<feColorMatrix type="matrix" values="0 0 0 0 0 0 0 0 0 0 0 0 0 0 0 0 0 0 0.12 0"/>
<feBlend mode="normal" in2="effect1_dropShadow" result="effect2_dropShadow"/>
<feColorMatrix in="SourceAlpha" type="matrix" values="0 0 0 0 0 0 0 0 0 0 0 0 0 0 0 0 0 0 127 0"/>
<feOffset dy="2"/>
<feGaussianBlur stdDeviation="1"/>
<feColorMatrix type="matrix" values="0 0 0 0 0 0 0 0 0 0 0 0 0 0 0 0 0 0 0.14 0"/>
<feBlend mode="normal" in2="effect2_dropShadow" result="effect3_dropShadow"/>
<feBlend mode="normal" in="SourceGraphic" in2="effect3_dropShadow" result="shape"/>
</filter>
<filter id="filter9_ddd" x="257.36" y="130.207" width="94.9925" height="70.2145" filterUnits="userSpaceOnUse" color-interpolation-filters="sRGB">
<feFlood flood-opacity="0" result="BackgroundImageFix"/>
<feColorMatrix in="SourceAlpha" type="matrix" values="0 0 0 0 0 0 0 0 0 0 0 0 0 0 0 0 0 0 127 0"/>
<feOffset dy="2"/>
<feGaussianBlur stdDeviation="2"/>
<feColorMatrix type="matrix" values="0 0 0 0 0 0 0 0 0 0 0 0 0 0 0 0 0 0 0.2 0"/>
<feBlend mode="normal" in2="BackgroundImageFix" result="effect1_dropShadow"/>
<feColorMatrix in="SourceAlpha" type="matrix" values="0 0 0 0 0 0 0 0 0 0 0 0 0 0 0 0 0 0 127 0"/>
<feOffset dy="1"/>
<feGaussianBlur stdDeviation="5"/>
<feColorMatrix type="matrix" values="0 0 0 0 0 0 0 0 0 0 0 0 0 0 0 0 0 0 0.12 0"/>
<feBlend mode="normal" in2="effect1_dropShadow" result="effect2_dropShadow"/>
<feColorMatrix in="SourceAlpha" type="matrix" values="0 0 0 0 0 0 0 0 0 0 0 0 0 0 0 0 0 0 127 0"/>
<feOffset dy="4"/>
<feGaussianBlur stdDeviation="2.5"/>
<feColorMatrix type="matrix" values="0 0 0 0 0 0 0 0 0 0 0 0 0 0 0 0 0 0 0.14 0"/>
<feBlend mode="normal" in2="effect2_dropShadow" result="effect3_dropShadow"/>
<feBlend mode="normal" in="SourceGraphic" in2="effect3_dropShadow" result="shape"/>
</filter>
<filter id="filter10_ddd" x="294.071" y="157.909" width="109.242" height="91.236" filterUnits="userSpaceOnUse" color-interpolation-filters="sRGB">
<feFlood flood-opacity="0" result="BackgroundImageFix"/>
<feColorMatrix in="SourceAlpha" type="matrix" values="0 0 0 0 0 0 0 0 0 0 0 0 0 0 0 0 0 0 127 0"/>
<feOffset dy="5"/>
<feGaussianBlur stdDeviation="2.5"/>
<feColorMatrix type="matrix" values="0 0 0 0 0 0 0 0 0 0 0 0 0 0 0 0 0 0 0.2 0"/>
<feBlend mode="normal" in2="BackgroundImageFix" result="effect1_dropShadow"/>
<feColorMatrix in="SourceAlpha" type="matrix" values="0 0 0 0 0 0 0 0 0 0 0 0 0 0 0 0 0 0 127 0"/>
<feOffset dy="3"/>
<feGaussianBlur stdDeviation="7"/>
<feColorMatrix type="matrix" values="0 0 0 0 0 0 0 0 0 0 0 0 0 0 0 0 0 0 0.12 0"/>
<feBlend mode="normal" in2="effect1_dropShadow" result="effect2_dropShadow"/>
<feColorMatrix in="SourceAlpha" type="matrix" values="0 0 0 0 0 0 0 0 0 0 0 0 0 0 0 0 0 0 127 0"/>
<feOffset dy="8"/>
<feGaussianBlur stdDeviation="5"/>
<feColorMatrix type="matrix" values="0 0 0 0 0 0 0 0 0 0 0 0 0 0 0 0 0 0 0.14 0"/>
<feBlend mode="normal" in2="effect2_dropShadow" result="effect3_dropShadow"/>
<feBlend mode="normal" in="SourceGraphic" in2="effect3_dropShadow" result="shape"/>
</filter>
<filter id="filter11_ddd" x="251.962" y="56.2632" width="89.4936" height="73.9081" filterUnits="userSpaceOnUse" color-interpolation-filters="sRGB">
<feFlood flood-opacity="0" result="BackgroundImageFix"/>
<feColorMatrix in="SourceAlpha" type="matrix" values="0 0 0 0 0 0 0 0 0 0 0 0 0 0 0 0 0 0 127 0"/>
<feOffset dy="2"/>
<feGaussianBlur stdDeviation="2"/>
<feColorMatrix type="matrix" values="0 0 0 0 0 0 0 0 0 0 0 0 0 0 0 0 0 0 0.2 0"/>
<feBlend mode="normal" in2="BackgroundImageFix" result="effect1_dropShadow"/>
<feColorMatrix in="SourceAlpha" type="matrix" values="0 0 0 0 0 0 0 0 0 0 0 0 0 0 0 0 0 0 127 0"/>
<feOffset dy="1"/>
<feGaussianBlur stdDeviation="5"/>
<feColorMatrix type="matrix" values="0 0 0 0 0 0 0 0 0 0 0 0 0 0 0 0 0 0 0.12 0"/>
<feBlend mode="normal" in2="effect1_dropShadow" result="effect2_dropShadow"/>
<feColorMatrix in="SourceAlpha" type="matrix" values="0 0 0 0 0 0 0 0 0 0 0 0 0 0 0 0 0 0 127 0"/>
<feOffset dy="4"/>
<feGaussianBlur stdDeviation="2.5"/>
<feColorMatrix type="matrix" values="0 0 0 0 0 0 0 0 0 0 0 0 0 0 0 0 0 0 0.14 0"/>
<feBlend mode="normal" in2="effect2_dropShadow" result="effect3_dropShadow"/>
<feBlend mode="normal" in="SourceGraphic" in2="effect3_dropShadow" result="shape"/>
</filter>
<filter id="filter12_ddd" x="432.946" y="76.653" width="64.9572" height="53.2939" filterUnits="userSpaceOnUse" color-interpolation-filters="sRGB">
<feFlood flood-opacity="0" result="BackgroundImageFix"/>
<feColorMatrix in="SourceAlpha" type="matrix" values="0 0 0 0 0 0 0 0 0 0 0 0 0 0 0 0 0 0 127 0"/>
<feOffset dy="1"/>
<feGaussianBlur stdDeviation="2.5"/>
<feColorMatrix type="matrix" values="0 0 0 0 0 0 0 0 0 0 0 0 0 0 0 0 0 0 0.2 0"/>
<feBlend mode="normal" in2="BackgroundImageFix" result="effect1_dropShadow"/>
<feColorMatrix in="SourceAlpha" type="matrix" values="0 0 0 0 0 0 0 0 0 0 0 0 0 0 0 0 0 0 127 0"/>
<feOffset dy="3"/>
<feGaussianBlur stdDeviation="0.5"/>
<feColorMatrix type="matrix" values="0 0 0 0 0 0 0 0 0 0 0 0 0 0 0 0 0 0 0.12 0"/>
<feBlend mode="normal" in2="effect1_dropShadow" result="effect2_dropShadow"/>
<feColorMatrix in="SourceAlpha" type="matrix" values="0 0 0 0 0 0 0 0 0 0 0 0 0 0 0 0 0 0 127 0"/>
<feOffset dy="2"/>
<feGaussianBlur stdDeviation="1"/>
<feColorMatrix type="matrix" values="0 0 0 0 0 0 0 0 0 0 0 0 0 0 0 0 0 0 0.14 0"/>
<feBlend mode="normal" in2="effect2_dropShadow" result="effect3_dropShadow"/>
<feBlend mode="normal" in="SourceGraphic" in2="effect3_dropShadow" result="shape"/>
</filter>
<filter id="filter13_ddd" x="369.093" y="48.1573" width="112.972" height="96.199" filterUnits="userSpaceOnUse" color-interpolation-filters="sRGB">
<feFlood flood-opacity="0" result="BackgroundImageFix"/>
<feColorMatrix in="SourceAlpha" type="matrix" values="0 0 0 0 0 0 0 0 0 0 0 0 0 0 0 0 0 0 127 0"/>
<feOffset dy="5"/>
<feGaussianBlur stdDeviation="2.5"/>
<feColorMatrix type="matrix" values="0 0 0 0 0 0 0 0 0 0 0 0 0 0 0 0 0 0 0.2 0"/>
<feBlend mode="normal" in2="BackgroundImageFix" result="effect1_dropShadow"/>
<feColorMatrix in="SourceAlpha" type="matrix" values="0 0 0 0 0 0 0 0 0 0 0 0 0 0 0 0 0 0 127 0"/>
<feOffset dy="3"/>
<feGaussianBlur stdDeviation="7"/>
<feColorMatrix type="matrix" values="0 0 0 0 0 0 0 0 0 0 0 0 0 0 0 0 0 0 0.12 0"/>
<feBlend mode="normal" in2="effect1_dropShadow" result="effect2_dropShadow"/>
<feColorMatrix in="SourceAlpha" type="matrix" values="0 0 0 0 0 0 0 0 0 0 0 0 0 0 0 0 0 0 127 0"/>
<feOffset dy="8"/>
<feGaussianBlur stdDeviation="5"/>
<feColorMatrix type="matrix" values="0 0 0 0 0 0 0 0 0 0 0 0 0 0 0 0 0 0 0.14 0"/>
<feBlend mode="normal" in2="effect2_dropShadow" result="effect3_dropShadow"/>
<feBlend mode="normal" in="SourceGraphic" in2="effect3_dropShadow" result="shape"/>
</filter>
<filter id="filter14_ddd" x="228.356" y="154.428" width="155.755" height="138.797" filterUnits="userSpaceOnUse" color-interpolation-filters="sRGB">
<feFlood flood-opacity="0" result="BackgroundImageFix"/>
<feColorMatrix in="SourceAlpha" type="matrix" values="0 0 0 0 0 0 0 0 0 0 0 0 0 0 0 0 0 0 127 0"/>
<feOffset dy="8"/>
<feGaussianBlur stdDeviation="5"/>
<feColorMatrix type="matrix" values="0 0 0 0 0 0 0 0 0 0 0 0 0 0 0 0 0 0 0.2 0"/>
<feBlend mode="normal" in2="BackgroundImageFix" result="effect1_dropShadow"/>
<feColorMatrix in="SourceAlpha" type="matrix" values="0 0 0 0 0 0 0 0 0 0 0 0 0 0 0 0 0 0 127 0"/>
<feOffset dy="6"/>
<feGaussianBlur stdDeviation="15"/>
<feColorMatrix type="matrix" values="0 0 0 0 0 0 0 0 0 0 0 0 0 0 0 0 0 0 0.12 0"/>
<feBlend mode="normal" in2="effect1_dropShadow" result="effect2_dropShadow"/>
<feColorMatrix in="SourceAlpha" type="matrix" values="0 0 0 0 0 0 0 0 0 0 0 0 0 0 0 0 0 0 127 0"/>
<feOffset dy="16"/>
<feGaussianBlur stdDeviation="12"/>
<feColorMatrix type="matrix" values="0 0 0 0 0 0 0 0 0 0 0 0 0 0 0 0 0 0 0.14 0"/>
<feBlend mode="normal" in2="effect2_dropShadow" result="effect3_dropShadow"/>
<feBlend mode="normal" in="SourceGraphic" in2="effect3_dropShadow" result="shape"/>
</filter>
<linearGradient id="paint0_linear" x1="527.259" y1="388.901" x2="527.259" y2="388.866" gradientUnits="userSpaceOnUse">
<stop stop-color="#808080" stop-opacity="0.25"/>
<stop offset="0.54" stop-color="#808080" stop-opacity="0.12"/>
<stop offset="1" stop-color="#808080" stop-opacity="0.1"/>
</linearGradient>
</defs>
</svg>
