<svg width="180" height="97" viewBox="0 0 180 97" fill="none" xmlns="http://www.w3.org/2000/svg">
<path d="M91.7356 53.2884H99.2072V73.2361H104.307V53.2884H111.779V49.0771H91.7356V53.2884ZM116.271 73.2361L118.083 67.7273H126.889L128.7 73.2361H134.229L125.816 49.0771H119.167L110.742 73.2361H116.271ZM119.393 63.74L122.396 54.5978H122.587L125.59 63.74H119.393ZM137.167 73.2361H152.79V69.0249H142.326V49.0771H137.167V73.2361ZM156.207 73.2361H161.366V66.3706L163.905 63.3036L170.589 73.2361H176.761L167.597 59.8945L176.654 49.0771H170.47L161.688 59.7292H161.366V49.0771H156.207V73.2361Z" fill="#6EB1F5"/>
<path d="M37.6523 0.99707C44.1359 0.99707 49.394 6.10489 49.394 12.4033V83.5018C49.394 89.8 44.1359 94.9078 37.6523 94.9078V94.9079C31.169 94.9078 25.9108 89.8 25.9108 83.5016L25.9106 12.4033C25.9109 6.10489 31.169 0.99707 37.6523 0.99707Z" fill="#2C66C4"/>
<path d="M3.47341 14.7501C8.05824 10.2965 15.4942 10.2965 20.0788 14.7501L71.8314 65.0243C76.416 69.4777 76.416 76.7012 71.8313 81.1549L71.8314 81.1551C67.2468 85.6085 59.8106 85.6085 55.2261 81.1549L3.47341 30.881C-1.11098 26.4273 -1.11098 19.2038 3.4737 14.7501H3.47341Z" fill="#3898F8" fill-opacity="0.701961"/>
<path d="M71.8314 14.7501C76.416 19.2038 76.416 26.4275 71.8313 30.881L20.0787 81.1551C15.4942 85.6085 8.05821 85.6085 3.47368 81.1548L3.47354 81.1551C-1.11099 76.7013 -1.11099 69.4777 3.47368 65.0241L55.2263 14.7501C59.8106 10.2965 67.2468 10.2965 71.8313 14.7501H71.8314Z" fill="#94CCFC" fill-opacity="0.6"/>
<path d="M90.2327 21.1686H97.7041V41.1163H102.804V21.1686H110.276V16.9573H90.2327V21.1686ZM114.768 41.1163L116.58 35.6074H125.386L127.197 41.1163H132.726L124.313 16.9573H117.664L109.239 41.1163H114.768ZM117.891 31.6203L120.893 22.4779H121.084L124.087 31.6203H117.891ZM135.664 41.1163H151.286V36.905H140.824V16.9573H135.664V41.1163ZM154.703 41.1163H159.863V34.2509L162.401 31.1837L169.087 41.1163H175.259L166.095 27.7746L175.152 16.9573H168.968L160.184 27.6095H159.863V16.9573H154.703V41.1163Z" fill="#2C66C4"/>
</svg>
