<svg width="199" height="180" viewBox="0 0 199 180" fill="none" xmlns="http://www.w3.org/2000/svg">
<path fill-rule="evenodd" clip-rule="evenodd" d="M173.618 91.049C173.95 91.4677 174.262 91.903 174.551 92.3534C176.222 94.9518 177.119 97.971 177.119 101.063V131.25C177.119 138.117 177.357 146.052 180.175 152.423C183.064 158.951 188.495 163.363 194.481 166.955C195.675 167.587 196.556 168.582 197.122 169.804C197.593 170.822 197.827 171.994 197.827 173.114V174.122L197.867 174.143L197.329 175.221C196.786 176.311 195.974 177.248 194.955 177.917C193.892 178.614 192.675 178.98 191.403 178.98H100.344C97.6146 178.98 95.0941 177.993 92.875 176.448C92.0535 175.877 91.2754 175.228 90.5447 174.528C89.6668 173.687 88.2862 173.684 87.405 174.522C86.6648 175.225 85.877 175.875 85.0451 176.449C82.8132 177.989 80.2779 178.98 77.5411 178.98H16.5376C12.2479 178.98 8.15908 177.272 5.1185 174.248C2.07926 171.225 0.359741 167.158 0.359741 162.862V101.063C0.359741 97.9686 1.26688 94.9555 2.94474 92.3598C3.22796 91.9215 3.53269 91.4973 3.85624 91.0893C4.52248 90.2494 4.52248 89.095 3.85624 88.2551C3.53269 87.8471 3.22796 87.423 2.94474 86.9847C1.26688 84.389 0.359741 81.3755 0.359741 78.2813V16.4822C0.359741 12.1865 2.07926 8.11918 5.1185 5.09595C8.15908 2.0717 12.2479 0.363647 16.5376 0.363647H77.5411C80.5564 0.363647 83.5056 1.21801 86.0664 2.808C86.5402 3.10198 86.9984 3.42018 87.4386 3.76058C88.2704 4.40405 89.3939 4.4027 90.2245 3.75756C90.6602 3.41917 91.1135 3.10266 91.5818 2.81002C94.1342 1.21667 97.0774 0.363647 100.087 0.363647H158.401C163.407 0.363647 168.116 2.34517 171.619 5.92037C175.129 9.50366 177.061 14.3157 177.061 19.3302V78.2813C177.061 81.3597 176.17 84.3634 174.513 86.9534C174.232 87.3917 173.931 87.8158 173.611 88.2238C172.951 89.0637 172.954 90.2124 173.618 91.049Z" stroke="#272727" stroke-width="0.4233" stroke-miterlimit="22.9256"/>
<path fill-rule="evenodd" clip-rule="evenodd" d="M16.5376 89.6713L88.9972 89.6733V162.862C88.9972 162.944 88.9938 168.033 88.9921 168.114C87.0015 168.273 85.2947 174.253 77.5411 174.253H16.5376C10.2368 174.253 5.08154 169.127 5.08154 162.862V101.063C5.08154 92.8045 11.3354 92.2347 11.2312 89.6783C12.1887 89.6716 15.5468 89.6713 16.5376 89.6713Z" fill="#3489E9"/>
<path fill-rule="evenodd" clip-rule="evenodd" d="M172.396 131.25V101.063C172.396 93.3739 166.081 91.9501 166.249 89.6544C165.768 89.6766 161.537 89.6712 161.05 89.6712L88.9968 89.6733V101.063V162.862C88.9968 162.974 88.977 167.452 88.9918 168.114C90.9838 168.273 92.6906 174.253 100.344 174.253H166.723H191.403C192.254 174.253 192.821 173.684 193.105 173.114C193.105 172.26 192.821 171.406 192.254 171.121C174.098 160.299 172.396 148.338 172.396 131.25Z" fill="#2C66C4"/>
<path fill-rule="evenodd" clip-rule="evenodd" d="M16.4916 5.09094H77.2501C85.8639 5.09094 86.4327 11.355 88.6921 11.087C88.6844 11.761 88.6575 15.7934 88.6605 16.4822L88.9972 89.6733L16.4916 89.6729C15.9607 89.6729 11.7977 89.7032 11.2312 89.6783C11.3354 87.3934 5.08154 86.2541 5.08154 78.2813V16.4822C5.08154 10.2171 10.2159 5.09094 16.4916 5.09094Z" fill="#73B7FB"/>
<path fill-rule="evenodd" clip-rule="evenodd" d="M100.087 5.09094H158.401C166.081 5.09094 172.339 11.3561 172.339 19.3302V78.2813C172.339 86.539 166.081 87.3934 166.25 89.6544C165.797 89.6716 161.46 89.6729 160.961 89.6729L88.9972 89.6733L88.7082 16.4822C88.7055 15.7567 88.6531 11.8751 88.6921 11.087C91.8341 11.1482 91.5529 5.09094 100.087 5.09094Z" fill="#BFE1FE"/>
<path fill-rule="evenodd" clip-rule="evenodd" d="M47.0392 73.2263C56.0968 73.2263 63.4395 80.5776 63.4395 89.6456C63.4395 98.7136 56.0968 106.065 47.0392 106.065C37.9816 106.065 30.6389 98.7136 30.6389 89.6456C30.6389 80.5776 37.9816 73.2263 47.0392 73.2263Z" fill="#272727"/>
<path fill-rule="evenodd" clip-rule="evenodd" d="M88.6764 73.2263C97.7339 73.2263 105.076 80.5776 105.076 89.6456C105.076 98.7136 97.7339 106.065 88.6764 106.065C79.6188 106.065 72.2761 98.7136 72.2761 89.6456C72.2761 80.5776 79.6188 73.2263 88.6764 73.2263Z" fill="#272727"/>
<path fill-rule="evenodd" clip-rule="evenodd" d="M130.509 73.2263C139.566 73.2263 146.909 80.5776 146.909 89.6456C146.909 98.7136 139.566 106.065 130.509 106.065C121.451 106.065 114.108 98.7136 114.108 89.6456C114.108 80.5776 121.451 73.2263 130.509 73.2263Z" fill="#272727"/>
</svg>
