<svg width="551" height="185" viewBox="0 0 551 185" fill="none" xmlns="http://www.w3.org/2000/svg">
<g clip-path="url(#clip0)">
<path d="M230.207 136V47.1328H254.804C261.681 47.1328 267.906 48.7604 273.481 52.0156C279.056 55.2708 283.43 59.8485 286.604 65.7485C289.777 71.6079 291.405 78.1794 291.486 85.4629V96.9985C291.486 104.404 289.92 111.077 286.787 117.018C283.694 122.959 279.361 127.597 273.786 130.934C268.212 134.271 261.986 135.959 255.109 136H230.207ZM233.503 50.4287V132.704H254.804C261.03 132.704 266.686 131.199 271.772 128.188C276.899 125.136 280.907 120.904 283.796 115.492C286.685 110.04 288.15 103.997 288.19 97.3647V85.9512C288.19 79.3187 286.766 73.2965 283.918 67.8848C281.11 62.473 277.163 58.2412 272.077 55.1895C267.032 52.097 261.437 50.5101 255.292 50.4287H233.503ZM314.525 136H311.229V69.96H314.525V136ZM309.52 49.3301C309.52 48.3942 309.845 47.6007 310.496 46.9497C311.147 46.258 311.941 45.9121 312.877 45.9121C313.812 45.9121 314.606 46.258 315.257 46.9497C315.949 47.6007 316.295 48.3942 316.295 49.3301C316.295 50.266 315.949 51.0594 315.257 51.7104C314.606 52.3615 313.812 52.687 312.877 52.687C311.941 52.687 311.147 52.3615 310.496 51.7104C309.845 51.0594 309.52 50.266 309.52 49.3301ZM358.742 133.925C364.723 133.925 369.647 132.338 373.512 129.164C377.419 125.99 379.555 121.596 379.921 115.98H383.217C382.891 122.369 380.43 127.516 375.832 131.422C371.234 135.288 365.537 137.221 358.742 137.221C350.482 137.221 343.91 134.23 339.028 128.249C334.185 122.267 331.764 114.149 331.764 103.896V101.698C331.764 91.6885 334.185 83.6929 339.028 77.7114C343.91 71.73 350.441 68.7393 358.62 68.7393C365.619 68.7393 371.397 70.8348 375.954 75.0259C380.511 79.217 382.932 84.7915 383.217 91.7495H379.921C379.636 85.8088 377.541 81.048 373.634 77.4673C369.769 73.8459 364.764 72.0352 358.62 72.0352C351.255 72.0352 345.477 74.7004 341.286 80.0308C337.135 85.3205 335.06 92.6854 335.06 102.125V104.262C335.06 113.498 337.156 120.762 341.347 126.051C345.579 131.3 351.377 133.925 358.742 133.925ZM423.711 137.221C418.381 137.221 413.478 135.797 409.002 132.948C404.567 130.059 401.088 126.112 398.565 121.107C396.042 116.103 394.781 110.548 394.781 104.445V101.698C394.781 95.5947 396.001 89.9998 398.443 84.9136C400.884 79.8273 404.241 75.86 408.513 73.0117C412.786 70.1634 417.445 68.7393 422.491 68.7393C429.855 68.7393 435.878 71.3638 440.557 76.6128C445.236 81.8618 447.576 88.7588 447.576 97.3037V100.783H398.076V104.384C398.076 109.755 399.195 114.739 401.433 119.337C403.712 123.895 406.825 127.475 410.772 130.08C414.759 132.684 419.073 133.986 423.711 133.986C428.146 133.986 431.91 133.253 435.003 131.789C438.136 130.283 440.903 127.984 443.304 124.892L445.623 126.54C440.699 133.66 433.395 137.221 423.711 137.221ZM422.491 72.0352C416.061 72.0352 410.609 74.4359 406.133 79.2373C401.657 83.998 399.033 90.0812 398.26 97.4868H444.28V96.6934C444.28 92.2174 443.324 88.0671 441.411 84.2422C439.54 80.3766 436.936 77.3859 433.599 75.27C430.303 73.1134 426.6 72.0352 422.491 72.0352ZM492.221 72.3403L487.948 71.9741C482.333 71.9741 477.633 73.8052 473.849 77.4673C470.065 81.0887 467.583 86.175 466.403 92.7261V136H463.107V69.96H466.403V83.6929C468.193 79.0949 470.879 75.4531 474.459 72.7676C478.04 70.082 482.536 68.7393 487.948 68.7393C489.861 68.7393 491.407 68.9631 492.587 69.4106L492.221 72.3403ZM527.649 137.221C522.319 137.221 517.415 135.797 512.939 132.948C508.504 130.059 505.025 126.112 502.502 121.107C499.98 116.103 498.718 110.548 498.718 104.445V101.698C498.718 95.5947 499.939 89.9998 502.38 84.9136C504.822 79.8273 508.179 75.86 512.451 73.0117C516.724 70.1634 521.383 68.7393 526.428 68.7393C533.793 68.7393 539.815 71.3638 544.495 76.6128C549.174 81.8618 551.514 88.7588 551.514 97.3037V100.783H502.014V104.384C502.014 109.755 503.133 114.739 505.371 119.337C507.65 123.895 510.763 127.475 514.709 130.08C518.697 132.684 523.01 133.986 527.649 133.986C532.084 133.986 535.848 133.253 538.94 131.789C542.074 130.283 544.84 127.984 547.241 124.892L549.561 126.54C544.637 133.66 537.333 137.221 527.649 137.221ZM526.428 72.0352C519.999 72.0352 514.547 74.4359 510.071 79.2373C505.595 83.998 502.97 90.0812 502.197 97.4868H548.218V96.6934C548.218 92.2174 547.262 88.0671 545.349 84.2422C543.477 80.3766 540.873 77.3859 537.537 75.27C534.241 73.1134 530.538 72.0352 526.428 72.0352Z" fill="white" fill-opacity="0.87"/>
<path fill-rule="evenodd" clip-rule="evenodd" d="M176.618 94.049C176.95 94.4677 177.262 94.903 177.551 95.3534C179.222 97.9518 180.119 100.971 180.119 104.063V134.25C180.119 141.117 180.357 149.052 183.175 155.423C186.064 161.951 191.495 166.363 197.481 169.955C198.675 170.587 199.556 171.582 200.122 172.804C200.593 173.822 200.827 174.994 200.827 176.114V177.122L200.867 177.143L200.329 178.221C199.786 179.311 198.974 180.248 197.955 180.917C196.892 181.614 195.675 181.98 194.403 181.98H103.344C100.615 181.98 98.0941 180.993 95.875 179.448C95.0535 178.877 94.2754 178.228 93.5447 177.528C92.6668 176.687 91.2862 176.684 90.405 177.522C89.6648 178.225 88.877 178.875 88.0451 179.449C85.8132 180.989 83.2779 181.98 80.5411 181.98H19.5376C15.2479 181.98 11.1591 180.272 8.1185 177.248C5.07926 174.225 3.35974 170.158 3.35974 165.862V104.063C3.35974 100.969 4.26688 97.9555 5.94474 95.3598C6.22796 94.9215 6.53269 94.4973 6.85624 94.0893C7.52248 93.2494 7.52248 92.095 6.85624 91.2551C6.53269 90.8471 6.22796 90.423 5.94474 89.9847C4.26688 87.389 3.35974 84.3755 3.35974 81.2813V19.4822C3.35974 15.1865 5.07926 11.1192 8.1185 8.09595C11.1591 5.0717 15.2479 3.36365 19.5376 3.36365H80.5411C83.5564 3.36365 86.5056 4.21801 89.0664 5.808C89.5402 6.10198 89.9984 6.42018 90.4386 6.76058C91.2704 7.40405 92.3939 7.4027 93.2245 6.75756C93.6602 6.41917 94.1135 6.10266 94.5818 5.81002C97.1342 4.21667 100.077 3.36365 103.087 3.36365H161.401C166.407 3.36365 171.116 5.34517 174.619 8.92037C178.129 12.5037 180.061 17.3157 180.061 22.3302V81.2813C180.061 84.3597 179.17 87.3634 177.513 89.9534C177.232 90.3917 176.931 90.8158 176.611 91.2238C175.951 92.0637 175.954 93.2124 176.618 94.049Z" stroke="#272727" stroke-width="0.4233" stroke-miterlimit="22.9256"/>
<path fill-rule="evenodd" clip-rule="evenodd" d="M19.5376 92.6713L91.9972 92.6733V165.862C91.9972 165.944 91.9938 171.033 91.9921 171.114C90.0015 171.273 88.2947 177.253 80.5411 177.253H19.5376C13.2368 177.253 8.08154 172.127 8.08154 165.862V104.063C8.08154 95.8045 14.3354 95.2347 14.2312 92.6783C15.1887 92.6716 18.5468 92.6713 19.5376 92.6713Z" fill="#3489E9"/>
<path fill-rule="evenodd" clip-rule="evenodd" d="M175.396 134.25V104.063C175.396 96.3739 169.081 94.9501 169.249 92.6544C168.768 92.6766 164.537 92.6712 164.05 92.6712L91.9968 92.6733V104.063V165.862C91.9968 165.974 91.977 170.452 91.9918 171.114C93.9838 171.273 95.6906 177.253 103.344 177.253H169.723H194.403C195.254 177.253 195.821 176.684 196.105 176.114C196.105 175.26 195.821 174.406 195.254 174.121C177.098 163.299 175.396 151.338 175.396 134.25Z" fill="#2C66C4"/>
<path fill-rule="evenodd" clip-rule="evenodd" d="M19.4916 8.09094H80.2501C88.8639 8.09094 89.4327 14.355 91.6921 14.087C91.6844 14.761 91.6575 18.7934 91.6605 19.4822L91.9972 92.6733L19.4916 92.6729C18.9607 92.6729 14.7977 92.7032 14.2312 92.6783C14.3354 90.3934 8.08154 89.2541 8.08154 81.2813V19.4822C8.08154 13.2171 13.2159 8.09094 19.4916 8.09094Z" fill="#73B7FB"/>
<path fill-rule="evenodd" clip-rule="evenodd" d="M103.087 8.09094H161.401C169.081 8.09094 175.339 14.3561 175.339 22.3302V81.2813C175.339 89.539 169.081 90.3934 169.25 92.6544C168.797 92.6716 164.46 92.6729 163.961 92.6729L91.9972 92.6733L91.7082 19.4822C91.7055 18.7567 91.6531 14.8751 91.6921 14.087C94.8341 14.1482 94.5529 8.09094 103.087 8.09094Z" fill="#BFE1FE"/>
<path fill-rule="evenodd" clip-rule="evenodd" d="M50.0392 76.2263C59.0968 76.2263 66.4395 83.5776 66.4395 92.6456C66.4395 101.714 59.0968 109.065 50.0392 109.065C40.9816 109.065 33.6389 101.714 33.6389 92.6456C33.6389 83.5776 40.9816 76.2263 50.0392 76.2263Z" fill="#272727"/>
<path fill-rule="evenodd" clip-rule="evenodd" d="M91.6764 76.2263C100.734 76.2263 108.076 83.5776 108.076 92.6456C108.076 101.714 100.734 109.065 91.6764 109.065C82.6188 109.065 75.2761 101.714 75.2761 92.6456C75.2761 83.5776 82.6188 76.2263 91.6764 76.2263Z" fill="#272727"/>
<path fill-rule="evenodd" clip-rule="evenodd" d="M133.509 76.2263C142.566 76.2263 149.909 83.5776 149.909 92.6456C149.909 101.714 142.566 109.065 133.509 109.065C124.451 109.065 117.108 101.714 117.108 92.6456C117.108 83.5776 124.451 76.2263 133.509 76.2263Z" fill="#272727"/>
</g>
<defs>
<clipPath id="clip0">
<rect width="551" height="185" fill="white"/>
</clipPath>
</defs>
</svg>
